<svg xmlns="http://www.w3.org/2000/svg" xmlns:xlink="http://www.w3.org/1999/xlink" width="500" zoomAndPan="magnify" viewBox="0 0 375 374.999991" height="500" preserveAspectRatio="xMidYMid meet" version="1.0"><metadata><ContainsAiGeneratedContent>Yes</ContainsAiGeneratedContent></metadata><defs><filter x="0%" y="0%" width="100%" height="100%" id="ab3f33dc04"><feColorMatrix values="0 0 0 0 1 0 0 0 0 1 0 0 0 0 1 0 0 0 1 0" color-interpolation-filters="sRGB"/></filter><mask id="34e7c89c8a"><g filter="url(#ab3f33dc04)"><rect x="-37.5" width="450" fill="#000000" y="-37.499999" height="449.999989" fill-opacity="0.23"/></g></mask><clipPath id="2482839d08"><path d="M 17 15 L 358 15 L 358 360 L 17 360 Z M 17 15 " clip-rule="nonzero"/></clipPath><clipPath id="c4506e58cf"><path d="M 204.84375 -41.546875 L 417.066406 179.582031 L 170.023438 416.679688 L -42.203125 195.546875 Z M 204.84375 -41.546875 " clip-rule="nonzero"/></clipPath><clipPath id="ddb59d685f"><path d="M 310.953125 69.019531 L 357.636719 236.617188 L 229.585938 359.511719 L 64.042969 305.984375 L 17.359375 138.382812 L 145.414062 15.488281 Z M 310.953125 69.019531 " clip-rule="nonzero"/></clipPath><clipPath id="5dc3b45bb0"><rect x="0" width="375" y="0" height="375"/></clipPath></defs><g mask="url(#34e7c89c8a)"><g transform="matrix(1, 0, 0, 1, 0, 0)"><g clip-path="url(#5dc3b45bb0)"><g clip-path="url(#2482839d08)"><g clip-path="url(#c4506e58cf)"><g clip-path="url(#ddb59d685f)"><path fill="#2b2b2b" d="M 204.84375 -41.546875 L 417.066406 179.582031 L 170.023438 416.679688 L -42.203125 195.546875 Z M 204.84375 -41.546875 " fill-opacity="1" fill-rule="nonzero"/></g></g></g></g></g></g></svg>