<svg xmlns="http://www.w3.org/2000/svg" xmlns:xlink="http://www.w3.org/1999/xlink" width="500" zoomAndPan="magnify" viewBox="0 0 375 374.999991" height="500" preserveAspectRatio="xMidYMid meet" version="1.0"><metadata><ContainsAiGeneratedContent>Yes</ContainsAiGeneratedContent></metadata><defs><filter x="0%" y="0%" width="100%" height="100%" id="ccc76c0bb5"><feColorMatrix values="0 0 0 0 1 0 0 0 0 1 0 0 0 0 1 0 0 0 1 0" color-interpolation-filters="sRGB"/></filter><mask id="732361d7ed"><g filter="url(#ccc76c0bb5)"><rect x="-37.5" width="450" fill="#000000" y="-37.499999" height="449.999989" fill-opacity="0.23"/></g></mask><clipPath id="00e417d427"><path d="M 6 4 L 351 4 L 351 371 L 6 371 Z M 6 4 " clip-rule="nonzero"/></clipPath><clipPath id="835b046e21"><path d="M 66.15625 -28.15625 L 369.339844 36.71875 L 290.777344 403.855469 L -12.40625 338.976562 Z M 66.15625 -28.15625 " clip-rule="nonzero"/></clipPath><clipPath id="5b1f9ef876"><path d="M 217.75 4.28125 L 350.464844 124.917969 L 309.800781 314.960938 L 139.335938 370.71875 L 6.617188 250.082031 L 47.285156 60.039062 Z M 217.75 4.28125 " clip-rule="nonzero"/></clipPath><clipPath id="ee5b94a465"><rect x="0" width="370" y="0" height="375"/></clipPath></defs><g mask="url(#732361d7ed)"><g transform="matrix(1, 0, 0, 1, 0, 0)"><g clip-path="url(#ee5b94a465)"><g clip-path="url(#00e417d427)"><g clip-path="url(#835b046e21)"><g clip-path="url(#5b1f9ef876)"><path fill="#2b2b2b" d="M 66.15625 -28.15625 L 369.339844 36.71875 L 291.03125 402.667969 L -12.152344 337.792969 Z M 66.15625 -28.15625 " fill-opacity="1" fill-rule="nonzero"/></g></g></g></g></g></g></svg>