<svg xmlns="http://www.w3.org/2000/svg" xmlns:xlink="http://www.w3.org/1999/xlink" width="500" zoomAndPan="magnify" viewBox="0 0 375 374.999991" height="500" preserveAspectRatio="xMidYMid meet" version="1.0"><metadata><ContainsAiGeneratedContent>Yes</ContainsAiGeneratedContent></metadata><defs><filter x="0%" y="0%" width="100%" height="100%" id="81d572d427"><feColorMatrix values="0 0 0 0 1 0 0 0 0 1 0 0 0 0 1 0 0 0 1 0" color-interpolation-filters="sRGB"/></filter><mask id="a34304aec7"><g filter="url(#81d572d427)"><rect x="-37.5" width="450" fill="#000000" y="-37.499999" height="449.999989" fill-opacity="0.23"/></g></mask><clipPath id="eb0b011500"><path d="M 8 7 L 367 7 L 367 355 L 8 355 Z M 8 7 " clip-rule="nonzero"/></clipPath><clipPath id="f2bdd04941"><path d="M -24.535156 63.636719 L 262.773438 -49.523438 L 399.800781 298.390625 L 112.492188 411.550781 Z M -24.535156 63.636719 " clip-rule="nonzero"/></clipPath><clipPath id="f831adf493"><path d="M 119.117188 7.058594 L 295.691406 34.058594 L 366.621094 214.152344 L 255.886719 354.3125 L 79.3125 327.308594 L 8.382812 147.21875 Z M 119.117188 7.058594 " clip-rule="nonzero"/></clipPath><clipPath id="ed4b237edb"><rect x="0" width="375" y="0" height="375"/></clipPath></defs><g mask="url(#a34304aec7)"><g transform="matrix(1, 0, 0, 1, 0, 0)"><g clip-path="url(#ed4b237edb)"><g clip-path="url(#eb0b011500)"><g clip-path="url(#f2bdd04941)"><g clip-path="url(#f831adf493)"><path fill="#2b2b2b" d="M -24.535156 63.636719 L 262.773438 -49.523438 L 399.359375 297.269531 L 112.050781 410.425781 Z M -24.535156 63.636719 " fill-opacity="1" fill-rule="nonzero"/></g></g></g></g></g></g></svg>