<svg xmlns="http://www.w3.org/2000/svg" xmlns:xlink="http://www.w3.org/1999/xlink" width="500" zoomAndPan="magnify" viewBox="0 0 375 374.999991" height="500" preserveAspectRatio="xMidYMid meet" version="1.0"><metadata><ContainsAiGeneratedContent>Yes</ContainsAiGeneratedContent></metadata><defs><filter x="0%" y="0%" width="100%" height="100%" id="a0ebae59da"><feColorMatrix values="0 0 0 0 1 0 0 0 0 1 0 0 0 0 1 0 0 0 1 0" color-interpolation-filters="sRGB"/></filter><mask id="b17fa44b14"><g filter="url(#a0ebae59da)"><rect x="-37.5" width="450" fill="#000000" y="-37.499999" height="449.999989" fill-opacity="0.23"/></g></mask><clipPath id="5dc1e48c0f"><path d="M 16 8 L 359 8 L 359 367 L 16 367 Z M 16 8 " clip-rule="nonzero"/></clipPath><clipPath id="ee86cbd75f"><path d="M 297.179688 -27.222656 L 418.960938 255.035156 L 77.164062 402.503906 L -44.617188 120.246094 Z M 297.179688 -27.222656 " clip-rule="nonzero"/></clipPath><clipPath id="bb159cfcb8"><path d="M 358.070312 113.90625 L 336.851562 290.460938 L 159.921875 366.796875 L 16.921875 261.09375 L 38.140625 84.539062 L 215.070312 8.203125 Z M 358.070312 113.90625 " clip-rule="nonzero"/></clipPath><clipPath id="0d786da247"><rect x="0" width="375" y="0" height="375"/></clipPath></defs><g mask="url(#b17fa44b14)"><g transform="matrix(1, 0, 0, 1, 0, 0)"><g clip-path="url(#0d786da247)"><g clip-path="url(#5dc1e48c0f)"><g clip-path="url(#ee86cbd75f)"><g clip-path="url(#bb159cfcb8)"><path fill="#2b2b2b" d="M 297.179688 -27.222656 L 418.960938 255.035156 L 78.265625 402.027344 L -43.515625 119.769531 Z M 297.179688 -27.222656 " fill-opacity="1" fill-rule="nonzero"/></g></g></g></g></g></g></svg>