<svg xmlns="http://www.w3.org/2000/svg" xmlns:xlink="http://www.w3.org/1999/xlink" width="500" zoomAndPan="magnify" viewBox="0 0 375 374.999991" height="500" preserveAspectRatio="xMidYMid meet" version="1.0"><metadata><ContainsAiGeneratedContent>Yes</ContainsAiGeneratedContent></metadata><path fill="#ffffff" d="M 38.925781 236.53125 L 38.925781 216.425781 L 50.8125 210.480469 L 50.8125 224.644531 L 62.699219 224.644531 L 62.699219 204.539062 L 83.171875 194.335938 C 83.667969 194.085938 84.121094 193.777344 84.53125 193.402344 C 84.941406 193.027344 85.292969 192.605469 85.585938 192.132812 C 85.878906 191.660156 86.097656 191.15625 86.25 190.621094 C 86.398438 190.085938 86.472656 189.542969 86.46875 188.984375 C 86.476562 187.695312 86.535156 186.40625 86.648438 185.117188 C 86.761719 183.832031 86.921875 182.550781 87.136719 181.277344 C 87.355469 180.003906 87.621094 178.742188 87.9375 177.488281 C 88.253906 176.238281 88.621094 175 89.039062 173.777344 C 89.457031 172.554688 89.925781 171.351562 90.4375 170.167969 C 90.953125 168.984375 91.515625 167.824219 92.125 166.683594 C 92.734375 165.542969 93.386719 164.433594 94.085938 163.347656 C 94.785156 162.261719 95.527344 161.203125 96.3125 160.179688 C 97.097656 159.152344 97.921875 158.160156 98.785156 157.199219 C 99.652344 156.242188 100.554688 155.320312 101.492188 154.433594 C 102.433594 153.546875 103.40625 152.699219 104.414062 151.890625 C 105.421875 151.085938 106.460938 150.320312 107.53125 149.597656 C 108.601562 148.871094 109.699219 148.195312 110.824219 147.558594 C 111.949219 146.925781 113.097656 146.335938 114.269531 145.796875 C 115.441406 145.253906 116.636719 144.761719 117.847656 144.316406 C 119.058594 143.871094 120.289062 143.476562 121.535156 143.128906 L 114.0625 173.011719 C 111.519531 183.171875 110.246094 193.488281 110.242188 203.960938 C 110.242188 208.070312 110.457031 212.144531 110.835938 216.1875 C 109.253906 216.734375 107.695312 217.34375 106.164062 218.015625 C 104.628906 218.691406 103.125 219.421875 101.648438 220.214844 C 100.175781 221.007812 98.734375 221.859375 97.328125 222.769531 C 95.921875 223.675781 94.554688 224.640625 93.222656 225.660156 C 91.894531 226.675781 90.609375 227.746094 89.363281 228.867188 C 88.121094 229.988281 86.921875 231.160156 85.773438 232.375 C 84.625 233.59375 83.523438 234.855469 82.476562 236.160156 C 81.425781 237.464844 80.433594 238.808594 79.492188 240.195312 C 78.550781 241.582031 77.664062 243 76.839844 244.457031 C 76.011719 245.914062 75.242188 247.398438 74.535156 248.917969 C 73.828125 250.433594 73.179688 251.976562 72.597656 253.546875 C 72.011719 255.117188 71.492188 256.707031 71.035156 258.316406 C 70.578125 259.929688 70.1875 261.554688 69.859375 263.199219 C 69.53125 264.839844 69.273438 266.492188 69.078125 268.15625 C 68.882812 269.820312 68.757812 271.488281 68.695312 273.160156 C 68.636719 274.835938 68.640625 276.507812 68.714844 278.179688 C 68.789062 279.851562 68.929688 281.519531 69.136719 283.183594 C 69.34375 284.84375 69.617188 286.496094 69.957031 288.132812 C 70.296875 289.773438 70.703125 291.398438 71.171875 293.003906 C 71.640625 294.613281 72.171875 296.199219 72.769531 297.761719 C 73.367188 299.328125 74.027344 300.867188 74.746094 302.378906 C 75.464844 303.890625 76.246094 305.371094 77.082031 306.820312 C 77.921875 308.269531 78.816406 309.683594 79.769531 311.058594 C 80.722656 312.4375 81.726562 313.773438 82.785156 315.070312 C 83.84375 316.367188 84.953125 317.621094 86.113281 318.828125 C 87.273438 320.039062 88.480469 321.199219 89.730469 322.308594 C 90.984375 323.421875 92.277344 324.480469 93.617188 325.488281 C 94.953125 326.496094 96.328125 327.449219 97.742188 328.347656 C 99.15625 329.242188 100.605469 330.082031 102.085938 330.863281 C 103.566406 331.644531 105.074219 332.367188 106.613281 333.027344 C 108.152344 333.6875 109.714844 334.285156 111.300781 334.820312 C 112.890625 335.355469 114.496094 335.828125 116.121094 336.234375 L 125.8125 338.660156 L 116.410156 371.578125 L 127.84375 374.84375 L 131.707031 361.332031 L 151.84375 361.332031 L 151.84375 349.445312 L 135.101562 349.445312 L 137.359375 341.546875 L 144.492188 343.328125 C 144.929688 343.4375 145.371094 343.492188 145.820312 343.5 C 146.273438 343.503906 146.714844 343.460938 147.15625 343.363281 C 147.597656 343.269531 148.019531 343.125 148.425781 342.933594 C 148.835938 342.742188 149.214844 342.507812 149.570312 342.230469 C 149.921875 341.953125 150.242188 341.640625 150.523438 341.289062 C 150.804688 340.9375 151.046875 340.5625 151.242188 340.15625 C 151.441406 339.753906 151.589844 339.332031 151.691406 338.890625 C 151.792969 338.453125 151.84375 338.007812 151.84375 337.558594 L 151.84375 319.730469 C 151.84375 319.175781 151.773438 318.632812 151.621094 318.097656 C 151.472656 317.5625 151.253906 317.058594 150.964844 316.585938 C 150.671875 316.113281 150.324219 315.691406 149.914062 315.316406 C 149.503906 314.941406 149.050781 314.628906 148.554688 314.382812 L 129.144531 304.675781 C 128.699219 304.453125 128.261719 304.21875 127.828125 303.96875 C 127.398438 303.71875 126.976562 303.453125 126.5625 303.175781 C 126.148438 302.898438 125.742188 302.609375 125.34375 302.304688 C 124.949219 302.003906 124.5625 301.6875 124.1875 301.359375 C 123.8125 301.03125 123.449219 300.691406 123.09375 300.339844 C 122.738281 299.988281 122.398438 299.628906 122.066406 299.253906 C 121.734375 298.878906 121.417969 298.496094 121.109375 298.105469 C 120.804688 297.710938 120.511719 297.308594 120.230469 296.894531 C 119.949219 296.484375 119.683594 296.0625 119.429688 295.632812 C 119.175781 295.203125 118.9375 294.765625 118.710938 294.320312 C 118.484375 293.875 118.273438 293.425781 118.078125 292.964844 C 117.882812 292.507812 117.699219 292.042969 117.53125 291.574219 C 117.367188 291.105469 117.214844 290.628906 117.078125 290.148438 C 116.941406 289.671875 116.820312 289.1875 116.714844 288.699219 C 116.609375 288.210938 116.519531 287.722656 116.445312 287.230469 C 116.371094 286.734375 116.3125 286.242188 116.269531 285.742188 C 116.226562 285.246094 116.199219 284.75 116.1875 284.25 C 116.179688 283.753906 116.183594 283.253906 116.203125 282.753906 C 116.226562 282.257812 116.261719 281.761719 116.316406 281.265625 C 116.367188 280.769531 116.4375 280.273438 116.523438 279.785156 C 116.605469 279.292969 116.707031 278.804688 116.824219 278.320312 C 116.9375 277.832031 117.070312 277.351562 117.214844 276.875 C 117.363281 276.398438 117.523438 275.929688 117.699219 275.460938 C 117.878906 274.996094 118.070312 274.535156 118.273438 274.082031 C 118.480469 273.628906 118.703125 273.179688 118.9375 272.742188 C 119.171875 272.300781 119.417969 271.867188 119.683594 271.445312 C 119.945312 271.019531 120.21875 270.605469 120.507812 270.199219 C 120.796875 269.792969 121.101562 269.394531 121.414062 269.007812 C 121.726562 268.621094 122.054688 268.246094 122.394531 267.878906 C 122.730469 267.511719 123.082031 267.15625 123.441406 266.8125 C 123.804688 266.46875 124.175781 266.136719 124.558594 265.816406 C 124.941406 265.496094 125.332031 265.191406 125.734375 264.894531 C 131.621094 275.707031 138.914062 285.46875 147.617188 294.175781 C 150.820312 297.390625 154.421875 300.078125 158.414062 302.234375 C 162.40625 304.390625 166.628906 305.925781 171.074219 306.839844 C 170.789062 307.515625 170.546875 308.207031 170.347656 308.910156 C 170.148438 309.613281 169.992188 310.328125 169.882812 311.054688 C 169.769531 311.777344 169.703125 312.503906 169.683594 313.238281 C 169.660156 313.96875 169.683594 314.699219 169.753906 315.429688 C 169.820312 316.160156 169.933594 316.882812 170.089844 317.597656 C 170.25 318.3125 170.449219 319.015625 170.691406 319.707031 C 170.9375 320.398438 171.222656 321.070312 171.550781 321.726562 C 171.878906 322.378906 172.242188 323.015625 172.648438 323.625 C 173.054688 324.234375 173.496094 324.816406 173.972656 325.375 C 174.449219 325.929688 174.957031 326.453125 175.5 326.945312 C 176.039062 327.441406 176.609375 327.898438 177.207031 328.320312 C 177.808594 328.746094 178.429688 329.128906 179.074219 329.476562 C 179.71875 329.820312 180.382812 330.128906 181.066406 330.390625 C 181.75 330.65625 182.445312 330.878906 183.15625 331.054688 C 183.867188 331.234375 184.585938 331.367188 185.3125 331.457031 C 186.039062 331.546875 186.769531 331.59375 187.503906 331.59375 C 188.234375 331.59375 188.964844 331.546875 189.691406 331.457031 C 190.417969 331.367188 191.136719 331.234375 191.847656 331.054688 C 192.558594 330.878906 193.253906 330.65625 193.9375 330.390625 C 194.621094 330.128906 195.285156 329.820312 195.933594 329.476562 C 196.578125 329.128906 197.199219 328.746094 197.796875 328.320312 C 198.394531 327.898438 198.964844 327.441406 199.507812 326.945312 C 200.046875 326.453125 200.558594 325.929688 201.035156 325.375 C 201.511719 324.816406 201.953125 324.234375 202.359375 323.625 C 202.761719 323.015625 203.128906 322.378906 203.457031 321.726562 C 203.78125 321.070312 204.070312 320.398438 204.3125 319.707031 C 204.558594 319.015625 204.757812 318.3125 204.914062 317.597656 C 205.074219 316.882812 205.183594 316.160156 205.253906 315.429688 C 205.324219 314.699219 205.34375 313.96875 205.324219 313.238281 C 205.300781 312.503906 205.234375 311.777344 205.125 311.054688 C 205.011719 310.328125 204.859375 309.613281 204.65625 308.910156 C 204.457031 308.207031 204.214844 307.515625 203.933594 306.839844 C 208.378906 305.925781 212.597656 304.390625 216.589844 302.234375 C 220.582031 300.078125 224.179688 297.390625 227.382812 294.175781 C 236.082031 285.472656 243.375 275.71875 249.265625 264.914062 C 249.667969 265.207031 250.058594 265.515625 250.441406 265.835938 C 250.824219 266.15625 251.195312 266.488281 251.554688 266.832031 C 251.914062 267.175781 252.265625 267.53125 252.601562 267.898438 C 252.941406 268.265625 253.265625 268.640625 253.582031 269.027344 C 253.894531 269.414062 254.195312 269.8125 254.484375 270.21875 C 254.773438 270.625 255.050781 271.039062 255.3125 271.464844 C 255.574219 271.886719 255.820312 272.320312 256.054688 272.761719 C 256.289062 273.199219 256.511719 273.648438 256.714844 274.101562 C 256.921875 274.554688 257.113281 275.015625 257.289062 275.480469 C 257.464844 275.945312 257.628906 276.417969 257.773438 276.894531 C 257.921875 277.371094 258.050781 277.851562 258.167969 278.335938 C 258.28125 278.820312 258.382812 279.308594 258.464844 279.800781 C 258.550781 280.292969 258.621094 280.785156 258.671875 281.28125 C 258.726562 281.777344 258.761719 282.273438 258.78125 282.773438 C 258.804688 283.269531 258.808594 283.769531 258.796875 284.265625 C 258.789062 284.765625 258.761719 285.261719 258.71875 285.761719 C 258.675781 286.257812 258.617188 286.75 258.542969 287.246094 C 258.46875 287.738281 258.378906 288.226562 258.273438 288.714844 C 258.167969 289.203125 258.046875 289.683594 257.910156 290.164062 C 257.773438 290.644531 257.621094 291.117188 257.453125 291.585938 C 257.285156 292.058594 257.105469 292.519531 256.910156 292.980469 C 256.710938 293.4375 256.5 293.890625 256.277344 294.332031 C 256.050781 294.777344 255.8125 295.214844 255.558594 295.644531 C 255.304688 296.074219 255.039062 296.496094 254.757812 296.90625 C 254.476562 297.320312 254.183594 297.722656 253.878906 298.113281 C 253.570312 298.507812 253.253906 298.890625 252.921875 299.265625 C 252.59375 299.636719 252.25 300 251.894531 300.351562 C 251.542969 300.703125 251.179688 301.042969 250.800781 301.371094 C 250.425781 301.699219 250.042969 302.015625 249.644531 302.316406 C 249.25 302.621094 248.84375 302.910156 248.429688 303.1875 C 248.015625 303.464844 247.59375 303.730469 247.164062 303.980469 C 246.734375 304.230469 246.292969 304.464844 245.847656 304.6875 L 226.433594 314.394531 C 225.9375 314.640625 225.488281 314.953125 225.078125 315.328125 C 224.671875 315.703125 224.324219 316.125 224.035156 316.597656 C 223.746094 317.066406 223.527344 317.570312 223.378906 318.101562 C 223.230469 318.632812 223.15625 319.175781 223.15625 319.730469 L 223.15625 337.558594 C 223.15625 338.011719 223.207031 338.457031 223.308594 338.894531 C 223.410156 339.335938 223.5625 339.757812 223.757812 340.164062 C 223.957031 340.570312 224.199219 340.949219 224.484375 341.296875 C 224.765625 341.648438 225.085938 341.964844 225.441406 342.242188 C 225.796875 342.519531 226.179688 342.753906 226.589844 342.945312 C 227 343.136719 227.425781 343.277344 227.867188 343.371094 C 228.308594 343.464844 228.753906 343.507812 229.203125 343.5 C 229.65625 343.492188 230.101562 343.433594 230.539062 343.324219 L 237.671875 341.542969 L 239.898438 349.445312 L 223.15625 349.445312 L 223.15625 361.332031 L 243.292969 361.332031 L 247.15625 374.851562 L 258.589844 371.582031 L 249.1875 338.660156 L 258.875 336.238281 C 260.5 335.832031 262.105469 335.363281 263.691406 334.828125 C 265.277344 334.292969 266.839844 333.695312 268.378906 333.035156 C 269.917969 332.375 271.429688 331.652344 272.910156 330.871094 C 274.390625 330.089844 275.839844 329.25 277.25 328.351562 C 278.664062 327.457031 280.039062 326.503906 281.378906 325.496094 C 282.714844 324.488281 284.011719 323.429688 285.261719 322.316406 C 286.515625 321.203125 287.722656 320.046875 288.882812 318.835938 C 290.039062 317.628906 291.148438 316.375 292.210938 315.078125 C 293.269531 313.78125 294.273438 312.445312 295.226562 311.066406 C 296.179688 309.691406 297.074219 308.277344 297.914062 306.828125 C 298.75 305.378906 299.53125 303.898438 300.25 302.386719 C 300.96875 300.875 301.628906 299.335938 302.226562 297.769531 C 302.824219 296.207031 303.355469 294.621094 303.824219 293.011719 C 304.296875 291.40625 304.699219 289.78125 305.039062 288.140625 C 305.378906 286.503906 305.652344 284.851562 305.859375 283.191406 C 306.066406 281.527344 306.207031 279.863281 306.28125 278.1875 C 306.355469 276.515625 306.363281 274.84375 306.300781 273.167969 C 306.242188 271.496094 306.113281 269.828125 305.917969 268.164062 C 305.726562 266.5 305.464844 264.847656 305.140625 263.207031 C 304.8125 261.5625 304.421875 259.9375 303.964844 258.324219 C 303.507812 256.714844 302.988281 255.125 302.402344 253.554688 C 301.816406 251.984375 301.171875 250.441406 300.464844 248.925781 C 299.753906 247.40625 298.988281 245.921875 298.160156 244.464844 C 297.332031 243.007812 296.449219 241.589844 295.507812 240.203125 C 294.566406 238.816406 293.574219 237.472656 292.523438 236.167969 C 291.476562 234.863281 290.375 233.601562 289.226562 232.382812 C 288.074219 231.164062 286.878906 229.996094 285.636719 228.875 C 284.390625 227.753906 283.105469 226.683594 281.777344 225.664062 C 280.445312 224.648438 279.078125 223.683594 277.671875 222.773438 C 276.265625 221.867188 274.824219 221.015625 273.351562 220.222656 C 271.875 219.429688 270.371094 218.695312 268.835938 218.023438 C 267.304688 217.351562 265.746094 216.742188 264.164062 216.191406 C 264.542969 212.152344 264.757812 208.074219 264.757812 203.96875 C 264.757812 193.496094 263.484375 183.175781 260.941406 173.015625 L 253.464844 143.128906 C 254.710938 143.476562 255.9375 143.871094 257.152344 144.316406 C 258.363281 144.761719 259.554688 145.253906 260.730469 145.796875 C 261.902344 146.339844 263.050781 146.925781 264.175781 147.5625 C 265.300781 148.195312 266.398438 148.875 267.464844 149.597656 C 268.535156 150.320312 269.574219 151.085938 270.582031 151.894531 C 271.589844 152.703125 272.566406 153.550781 273.503906 154.433594 C 274.445312 155.320312 275.34375 156.242188 276.210938 157.203125 C 277.074219 158.164062 277.898438 159.15625 278.683594 160.179688 C 279.46875 161.207031 280.210938 162.261719 280.910156 163.347656 C 281.609375 164.433594 282.261719 165.546875 282.871094 166.6875 C 283.480469 167.824219 284.042969 168.984375 284.558594 170.171875 C 285.074219 171.355469 285.539062 172.558594 285.957031 173.78125 C 286.375 175.003906 286.742188 176.238281 287.058594 177.492188 C 287.378906 178.742188 287.644531 180.003906 287.859375 181.277344 C 288.074219 182.550781 288.238281 183.832031 288.351562 185.117188 C 288.460938 186.40625 288.523438 187.695312 288.53125 188.984375 C 288.527344 189.539062 288.601562 190.085938 288.75 190.621094 C 288.898438 191.152344 289.117188 191.65625 289.410156 192.128906 C 289.699219 192.601562 290.050781 193.027344 290.457031 193.402344 C 290.867188 193.773438 291.320312 194.085938 291.816406 194.335938 L 312.300781 204.539062 L 312.300781 224.644531 L 324.1875 224.644531 L 324.1875 210.476562 L 336.074219 216.417969 L 336.074219 236.53125 L 347.960938 236.53125 L 347.960938 212.757812 C 347.960938 212.203125 347.890625 211.660156 347.738281 211.125 C 347.589844 210.589844 347.371094 210.085938 347.082031 209.613281 C 346.789062 209.140625 346.441406 208.71875 346.03125 208.34375 C 345.621094 207.96875 345.167969 207.65625 344.671875 207.410156 L 300.292969 185.230469 C 300.175781 183.5625 299.992188 181.902344 299.738281 180.253906 C 299.484375 178.601562 299.164062 176.964844 298.773438 175.339844 C 298.382812 173.714844 297.925781 172.109375 297.398438 170.523438 C 296.875 168.9375 296.28125 167.375 295.625 165.839844 C 294.96875 164.300781 294.25 162.796875 293.46875 161.320312 C 292.6875 159.84375 291.84375 158.402344 290.941406 156.996094 C 290.035156 155.589844 289.078125 154.226562 288.058594 152.902344 C 287.042969 151.574219 285.96875 150.296875 284.84375 149.058594 C 283.71875 147.824219 282.546875 146.636719 281.320312 145.5 C 280.097656 144.363281 278.828125 143.28125 277.511719 142.25 C 276.195312 141.21875 274.839844 140.246094 273.445312 139.328125 C 272.046875 138.414062 270.613281 137.554688 269.144531 136.757812 C 267.675781 135.960938 266.179688 135.230469 264.648438 134.558594 C 263.117188 133.886719 261.5625 133.28125 259.980469 132.738281 C 258.402344 132.199219 256.800781 131.726562 255.179688 131.320312 C 253.558594 130.914062 251.925781 130.574219 250.273438 130.304688 L 246.75 116.203125 C 246.589844 115.5625 246.324219 114.964844 245.964844 114.414062 C 245.601562 113.859375 245.160156 113.382812 244.636719 112.976562 C 244.113281 112.570312 243.539062 112.261719 242.914062 112.046875 C 242.289062 111.832031 241.648438 111.726562 240.988281 111.726562 L 218.003906 111.726562 L 218.742188 105.785156 L 223.15625 105.785156 C 224.128906 105.785156 225.101562 105.734375 226.070312 105.636719 C 227.039062 105.542969 228 105.398438 228.953125 105.207031 C 229.90625 105.015625 230.847656 104.78125 231.78125 104.496094 C 232.710938 104.214844 233.625 103.886719 234.523438 103.511719 C 235.421875 103.140625 236.300781 102.722656 237.15625 102.265625 C 238.015625 101.804688 238.847656 101.304688 239.65625 100.765625 C 240.464844 100.226562 241.246094 99.644531 242 99.027344 C 242.75 98.410156 243.472656 97.757812 244.160156 97.070312 C 244.847656 96.382812 245.5 95.664062 246.117188 94.910156 C 246.734375 94.160156 247.3125 93.378906 247.855469 92.570312 C 248.394531 91.761719 248.894531 90.929688 249.351562 90.070312 C 249.8125 89.210938 250.226562 88.335938 250.601562 87.433594 C 250.972656 86.535156 251.300781 85.621094 251.585938 84.691406 C 251.867188 83.761719 252.105469 82.816406 252.296875 81.863281 C 252.484375 80.910156 252.628906 79.949219 252.726562 78.980469 C 252.824219 78.011719 252.871094 77.042969 252.871094 76.070312 C 252.859375 75.066406 252.605469 74.128906 252.113281 73.257812 C 251.617188 72.382812 250.941406 71.683594 250.085938 71.160156 L 255.753906 59.828125 C 259 60.503906 262.183594 61.394531 265.304688 62.5 C 268.429688 63.605469 271.464844 64.914062 274.414062 66.429688 C 277.363281 67.941406 280.195312 69.644531 282.914062 71.539062 C 285.632812 73.433594 288.214844 75.503906 290.652344 77.742188 C 293.09375 79.984375 295.375 82.378906 297.492188 84.925781 C 299.613281 87.472656 301.550781 90.152344 303.308594 92.960938 C 305.070312 95.769531 306.632812 98.683594 308 101.699219 C 309.367188 104.71875 310.523438 107.816406 311.476562 110.992188 L 324.417969 155.003906 L 335.816406 151.652344 L 322.875 107.636719 C 321.808594 104.074219 320.519531 100.597656 319.003906 97.199219 C 317.488281 93.804688 315.757812 90.523438 313.816406 87.351562 C 311.871094 84.179688 309.734375 81.148438 307.398438 78.253906 C 305.058594 75.363281 302.546875 72.632812 299.855469 70.066406 C 297.164062 67.5 294.320312 65.117188 291.320312 62.921875 C 288.320312 60.722656 285.191406 58.730469 281.929688 56.9375 C 278.671875 55.148438 275.3125 53.574219 271.847656 52.21875 C 268.386719 50.867188 264.847656 49.742188 261.238281 48.84375 L 263.421875 44.484375 L 275.902344 36.164062 L 284.347656 44.601562 L 292.75 36.199219 L 285.96875 29.449219 L 293.695312 24.289062 L 302.132812 32.726562 L 310.535156 24.324219 L 303.796875 17.5625 L 315.601562 9.699219 L 309.003906 -0.191406 L 255.515625 35.46875 C 254.644531 36.054688 253.972656 36.816406 253.496094 37.753906 L 248.992188 46.769531 C 246.335938 46.519531 243.671875 46.355469 240.988281 46.355469 L 205.328125 46.355469 C 205.328125 45.769531 205.300781 45.1875 205.242188 44.609375 C 205.1875 44.027344 205.101562 43.449219 204.984375 42.875 C 204.871094 42.304688 204.730469 41.738281 204.5625 41.179688 C 204.390625 40.621094 204.195312 40.070312 203.972656 39.53125 C 203.75 38.992188 203.5 38.464844 203.222656 37.949219 C 202.949219 37.4375 202.648438 36.933594 202.324219 36.449219 C 202 35.964844 201.652344 35.496094 201.28125 35.042969 C 200.910156 34.59375 200.519531 34.160156 200.105469 33.75 C 199.695312 33.335938 199.261719 32.945312 198.808594 32.574219 C 198.359375 32.203125 197.890625 31.855469 197.40625 31.53125 C 196.917969 31.207031 196.417969 30.90625 195.90625 30.632812 C 195.390625 30.355469 194.863281 30.105469 194.324219 29.882812 C 193.785156 29.660156 193.234375 29.464844 192.675781 29.292969 C 192.117188 29.125 191.550781 28.984375 190.976562 28.867188 C 190.40625 28.753906 189.828125 28.667969 189.246094 28.613281 C 188.667969 28.554688 188.082031 28.527344 187.5 28.527344 C 186.917969 28.527344 186.332031 28.554688 185.753906 28.613281 C 185.171875 28.667969 184.59375 28.753906 184.023438 28.867188 C 183.449219 28.984375 182.882812 29.125 182.324219 29.292969 C 181.765625 29.464844 181.214844 29.660156 180.675781 29.882812 C 180.136719 30.105469 179.609375 30.355469 179.09375 30.632812 C 178.582031 30.90625 178.082031 31.207031 177.59375 31.53125 C 177.109375 31.855469 176.640625 32.203125 176.191406 32.574219 C 175.738281 32.945312 175.304688 33.335938 174.894531 33.75 C 174.480469 34.160156 174.089844 34.59375 173.71875 35.042969 C 173.347656 35.496094 173 35.964844 172.675781 36.449219 C 172.351562 36.933594 172.050781 37.4375 171.777344 37.949219 C 171.5 38.464844 171.25 38.992188 171.027344 39.53125 C 170.804688 40.070312 170.609375 40.621094 170.4375 41.179688 C 170.269531 41.738281 170.128906 42.304688 170.015625 42.875 C 169.898438 43.449219 169.8125 44.027344 169.757812 44.609375 C 169.699219 45.1875 169.671875 45.769531 169.671875 46.355469 L 134.011719 46.355469 C 131.320312 46.355469 128.664062 46.519531 126.007812 46.769531 L 121.535156 37.753906 C 121.058594 36.816406 120.386719 36.054688 119.511719 35.46875 L 66.027344 -0.191406 L 59.429688 9.699219 L 71.230469 17.5625 L 64.4375 24.324219 L 72.84375 32.726562 L 81.28125 24.289062 L 89.007812 29.449219 L 82.269531 36.210938 L 90.671875 44.613281 L 99.117188 36.175781 L 111.597656 44.496094 L 113.777344 48.855469 C 110.167969 49.75 106.628906 50.875 103.167969 52.226562 C 99.703125 53.582031 96.339844 55.152344 93.082031 56.941406 C 89.820312 58.734375 86.691406 60.726562 83.6875 62.921875 C 80.6875 65.117188 77.839844 67.5 75.148438 70.066406 C 72.457031 72.632812 69.941406 75.363281 67.605469 78.253906 C 65.269531 81.148438 63.128906 84.179688 61.183594 87.351562 C 59.242188 90.523438 57.511719 93.804688 55.992188 97.199219 C 54.476562 100.597656 53.183594 104.074219 52.121094 107.636719 L 39.171875 151.652344 L 50.570312 155.003906 L 63.519531 110.992188 C 64.46875 107.816406 65.628906 104.71875 66.996094 101.699219 C 68.363281 98.679688 69.925781 95.765625 71.683594 92.957031 C 73.441406 90.148438 75.382812 87.46875 77.5 84.921875 C 79.621094 82.375 81.898438 79.980469 84.339844 77.738281 C 86.78125 75.496094 89.363281 73.429688 92.082031 71.535156 C 94.800781 69.640625 97.632812 67.933594 100.582031 66.421875 C 103.53125 64.910156 106.566406 63.597656 109.691406 62.496094 C 112.816406 61.390625 116 60.5 119.246094 59.820312 L 124.914062 71.160156 C 124.058594 71.683594 123.382812 72.382812 122.886719 73.257812 C 122.394531 74.128906 122.140625 75.066406 122.128906 76.070312 C 122.128906 77.042969 122.175781 78.011719 122.273438 78.980469 C 122.371094 79.949219 122.515625 80.910156 122.703125 81.863281 C 122.894531 82.816406 123.132812 83.761719 123.414062 84.691406 C 123.699219 85.621094 124.027344 86.535156 124.398438 87.433594 C 124.773438 88.335938 125.1875 89.210938 125.648438 90.070312 C 126.105469 90.929688 126.605469 91.761719 127.144531 92.570312 C 127.6875 93.378906 128.265625 94.160156 128.882812 94.910156 C 129.5 95.664062 130.152344 96.382812 130.839844 97.070312 C 131.527344 97.757812 132.25 98.410156 133 99.027344 C 133.753906 99.644531 134.535156 100.226562 135.34375 100.765625 C 136.152344 101.304688 136.984375 101.804688 137.84375 102.265625 C 138.699219 102.722656 139.578125 103.140625 140.476562 103.511719 C 141.375 103.886719 142.289062 104.214844 143.21875 104.496094 C 144.152344 104.78125 145.09375 105.015625 146.046875 105.207031 C 147 105.398438 147.960938 105.542969 148.929688 105.636719 C 149.898438 105.734375 150.871094 105.785156 151.84375 105.785156 L 156.253906 105.785156 L 156.996094 111.726562 L 134.011719 111.726562 C 133.351562 111.726562 132.707031 111.835938 132.082031 112.050781 C 131.453125 112.265625 130.878906 112.578125 130.355469 112.984375 C 129.835938 113.394531 129.394531 113.875 129.03125 114.429688 C 128.671875 114.984375 128.410156 115.582031 128.25 116.226562 L 124.726562 130.324219 C 123.074219 130.59375 121.441406 130.929688 119.820312 131.335938 C 118.199219 131.742188 116.597656 132.214844 115.015625 132.757812 C 113.433594 133.296875 111.878906 133.902344 110.347656 134.574219 C 108.820312 135.246094 107.320312 135.980469 105.851562 136.777344 C 104.382812 137.574219 102.949219 138.429688 101.550781 139.347656 C 100.152344 140.265625 98.796875 141.238281 97.480469 142.269531 C 96.167969 143.296875 94.894531 144.382812 93.671875 145.519531 C 92.445312 146.65625 91.273438 147.84375 90.148438 149.078125 C 89.023438 150.3125 87.949219 151.59375 86.933594 152.917969 C 85.914062 154.246094 84.953125 155.609375 84.050781 157.015625 C 83.148438 158.421875 82.304688 159.863281 81.519531 161.339844 C 80.738281 162.816406 80.019531 164.324219 79.363281 165.859375 C 78.707031 167.394531 78.117188 168.957031 77.589844 170.542969 C 77.066406 172.128906 76.605469 173.734375 76.214844 175.359375 C 75.824219 176.984375 75.503906 178.625 75.25 180.273438 C 74.996094 181.925781 74.8125 183.585938 74.695312 185.253906 L 30.316406 207.410156 C 29.820312 207.65625 29.367188 207.96875 28.960938 208.34375 C 28.550781 208.71875 28.203125 209.144531 27.914062 209.617188 C 27.625 210.089844 27.40625 210.59375 27.257812 211.125 C 27.109375 211.660156 27.035156 212.203125 27.039062 212.757812 L 27.039062 236.53125 Z M 104.296875 283.738281 C 104.292969 285.375 104.402344 287 104.621094 288.617188 C 104.84375 290.234375 105.175781 291.832031 105.621094 293.402344 C 106.0625 294.976562 106.613281 296.507812 107.269531 298.003906 C 107.929688 299.5 108.6875 300.941406 109.546875 302.332031 C 110.40625 303.71875 111.355469 305.042969 112.398438 306.300781 C 113.441406 307.558594 114.566406 308.734375 115.773438 309.835938 C 116.984375 310.9375 118.261719 311.945312 119.609375 312.867188 C 120.957031 313.789062 122.363281 314.613281 123.828125 315.339844 L 139.957031 323.402344 L 139.957031 329.941406 L 119 324.699219 C 117.707031 324.375 116.429688 324.003906 115.167969 323.578125 C 113.902344 323.15625 112.65625 322.683594 111.429688 322.160156 C 110.203125 321.640625 109 321.070312 107.816406 320.453125 C 106.636719 319.835938 105.480469 319.175781 104.351562 318.46875 C 103.222656 317.757812 102.121094 317.007812 101.050781 316.214844 C 99.980469 315.417969 98.941406 314.585938 97.9375 313.707031 C 96.933594 312.832031 95.964844 311.917969 95.03125 310.964844 C 94.101562 310.015625 93.207031 309.027344 92.351562 308.003906 C 91.496094 306.980469 90.683594 305.925781 89.910156 304.839844 C 89.140625 303.753906 88.410156 302.636719 87.726562 301.492188 C 87.042969 300.347656 86.40625 299.179688 85.8125 297.984375 C 85.222656 296.792969 84.679688 295.574219 84.183594 294.339844 C 83.6875 293.101562 83.238281 291.847656 82.839844 290.574219 C 82.445312 289.300781 82.097656 288.015625 81.800781 286.714844 C 81.503906 285.417969 81.261719 284.109375 81.066406 282.789062 C 80.875 281.46875 80.734375 280.144531 80.644531 278.816406 C 80.558594 277.484375 80.519531 276.152344 80.539062 274.820312 C 80.554688 273.488281 80.621094 272.160156 80.742188 270.832031 C 80.863281 269.503906 81.039062 268.183594 81.261719 266.871094 C 81.488281 265.554688 81.765625 264.253906 82.089844 262.960938 C 82.417969 261.667969 82.796875 260.390625 83.226562 259.128906 C 83.652344 257.867188 84.132812 256.625 84.65625 255.398438 C 85.183594 254.175781 85.757812 252.972656 86.378906 251.792969 C 87 250.613281 87.664062 249.460938 88.375 248.332031 C 89.089844 247.207031 89.84375 246.109375 90.640625 245.039062 C 91.4375 243.972656 92.277344 242.9375 93.15625 241.9375 C 94.039062 240.9375 94.957031 239.96875 95.910156 239.042969 C 96.867188 238.113281 97.855469 237.222656 98.882812 236.371094 C 99.910156 235.519531 100.964844 234.710938 102.054688 233.941406 C 103.144531 233.175781 104.261719 232.449219 105.410156 231.769531 C 106.554688 231.089844 107.726562 230.457031 108.925781 229.871094 C 110.121094 229.28125 111.339844 228.742188 112.578125 228.25 C 114.289062 237.148438 116.925781 245.761719 120.492188 254.089844 C 119.257812 254.886719 118.074219 255.753906 116.945312 256.695312 C 115.816406 257.636719 114.75 258.644531 113.75 259.722656 C 112.746094 260.796875 111.816406 261.929688 110.957031 263.125 C 110.097656 264.316406 109.3125 265.558594 108.609375 266.847656 C 107.90625 268.136719 107.285156 269.464844 106.746094 270.835938 C 106.207031 272.203125 105.757812 273.597656 105.390625 275.023438 C 105.027344 276.445312 104.753906 277.886719 104.574219 279.347656 C 104.390625 280.804688 104.296875 282.269531 104.296875 283.738281 Z M 187.5 319.730469 C 187.109375 319.730469 186.722656 319.691406 186.339844 319.617188 C 185.957031 319.539062 185.585938 319.425781 185.226562 319.277344 C 184.863281 319.128906 184.523438 318.945312 184.199219 318.730469 C 183.875 318.511719 183.574219 318.265625 183.296875 317.988281 C 183.023438 317.714844 182.777344 317.414062 182.558594 317.089844 C 182.34375 316.765625 182.160156 316.421875 182.007812 316.0625 C 181.859375 315.703125 181.746094 315.328125 181.671875 314.945312 C 181.59375 314.5625 181.558594 314.179688 181.558594 313.789062 C 181.558594 313.398438 181.59375 313.011719 181.671875 312.628906 C 181.746094 312.246094 181.859375 311.875 182.007812 311.511719 C 182.160156 311.152344 182.34375 310.808594 182.558594 310.484375 C 182.777344 310.160156 183.023438 309.859375 183.296875 309.585938 C 183.574219 309.308594 183.875 309.0625 184.199219 308.847656 C 184.523438 308.628906 184.863281 308.445312 185.226562 308.296875 C 185.585938 308.148438 185.957031 308.035156 186.339844 307.957031 C 186.722656 307.882812 187.109375 307.84375 187.5 307.84375 C 187.890625 307.84375 188.277344 307.882812 188.660156 307.957031 C 189.042969 308.035156 189.414062 308.148438 189.773438 308.296875 C 190.132812 308.445312 190.476562 308.628906 190.800781 308.847656 C 191.125 309.0625 191.425781 309.308594 191.703125 309.585938 C 191.976562 309.859375 192.222656 310.160156 192.441406 310.484375 C 192.65625 310.808594 192.839844 311.152344 192.992188 311.511719 C 193.140625 311.875 193.253906 312.246094 193.328125 312.628906 C 193.40625 313.011719 193.441406 313.398438 193.441406 313.789062 C 193.441406 314.179688 193.40625 314.5625 193.328125 314.945312 C 193.253906 315.328125 193.140625 315.703125 192.992188 316.0625 C 192.839844 316.421875 192.65625 316.765625 192.441406 317.089844 C 192.222656 317.414062 191.976562 317.714844 191.703125 317.988281 C 191.425781 318.265625 191.125 318.511719 190.800781 318.730469 C 190.476562 318.945312 190.132812 319.128906 189.773438 319.277344 C 189.414062 319.425781 189.042969 319.539062 188.660156 319.617188 C 188.277344 319.691406 187.890625 319.730469 187.5 319.730469 Z M 294.472656 275.433594 C 294.476562 276.835938 294.417969 278.238281 294.304688 279.636719 C 294.1875 281.035156 294.015625 282.429688 293.785156 283.8125 C 293.554688 285.199219 293.269531 286.570312 292.925781 287.933594 C 292.578125 289.292969 292.179688 290.636719 291.722656 291.964844 C 291.265625 293.292969 290.757812 294.601562 290.191406 295.886719 C 289.628906 297.171875 289.011719 298.429688 288.339844 299.664062 C 287.671875 300.898438 286.953125 302.105469 286.183594 303.277344 C 285.414062 304.453125 284.597656 305.59375 283.734375 306.699219 C 282.871094 307.808594 281.960938 308.875 281.007812 309.90625 C 280.054688 310.9375 279.0625 311.929688 278.027344 312.878906 C 276.992188 313.824219 275.917969 314.730469 274.808594 315.589844 C 273.699219 316.449219 272.554688 317.261719 271.378906 318.027344 C 270.199219 318.789062 268.992188 319.503906 267.753906 320.167969 C 266.519531 320.832031 265.257812 321.445312 263.96875 322.003906 C 262.679688 322.5625 261.371094 323.070312 260.042969 323.519531 C 258.714844 323.972656 257.367188 324.367188 256.003906 324.703125 L 235.042969 329.945312 L 235.042969 323.410156 L 251.179688 315.34375 C 252.566406 314.652344 253.898438 313.871094 255.183594 313 C 256.464844 312.132812 257.6875 311.183594 258.84375 310.152344 C 260.003906 309.121094 261.085938 308.019531 262.101562 306.847656 C 263.113281 305.675781 264.042969 304.441406 264.894531 303.144531 C 265.746094 301.851562 266.507812 300.503906 267.179688 299.109375 C 267.851562 297.710938 268.429688 296.277344 268.914062 294.804688 C 269.398438 293.332031 269.785156 291.835938 270.070312 290.3125 C 270.355469 288.789062 270.542969 287.253906 270.628906 285.707031 C 270.710938 284.160156 270.695312 282.613281 270.574219 281.066406 C 270.453125 279.523438 270.234375 277.992188 269.914062 276.476562 C 269.59375 274.960938 269.171875 273.472656 268.65625 272.011719 C 268.136719 270.550781 267.527344 269.128906 266.824219 267.75 C 266.117188 266.367188 265.328125 265.039062 264.445312 263.765625 C 263.566406 262.488281 262.609375 261.277344 261.570312 260.125 C 260.53125 258.976562 259.417969 257.898438 258.238281 256.898438 C 257.058594 255.894531 255.816406 254.972656 254.511719 254.132812 C 258.082031 245.800781 260.722656 237.1875 262.433594 228.285156 C 264.785156 229.21875 267.050781 230.316406 269.234375 231.585938 C 271.421875 232.855469 273.5 234.28125 275.472656 235.859375 C 277.441406 237.441406 279.285156 239.15625 281 241.011719 C 282.71875 242.867188 284.285156 244.839844 285.703125 246.933594 C 287.125 249.023438 288.382812 251.207031 289.476562 253.484375 C 290.570312 255.761719 291.488281 258.109375 292.230469 260.523438 C 292.972656 262.9375 293.535156 265.394531 293.910156 267.894531 C 294.285156 270.390625 294.472656 272.90625 294.472656 275.433594 Z M 249.417969 175.910156 C 250.023438 178.320312 250.546875 180.75 250.992188 183.191406 C 251.4375 185.636719 251.804688 188.09375 252.09375 190.5625 C 252.382812 193.027344 252.589844 195.503906 252.71875 197.984375 C 252.847656 200.464844 252.894531 202.949219 252.863281 205.433594 C 252.832031 207.917969 252.722656 210.398438 252.53125 212.875 C 252.339844 215.351562 252.070312 217.820312 251.71875 220.28125 C 251.371094 222.738281 250.941406 225.183594 250.433594 227.617188 C 249.925781 230.050781 249.339844 232.460938 248.679688 234.855469 C 248.015625 237.25 247.277344 239.621094 246.460938 241.96875 C 245.644531 244.316406 244.753906 246.632812 243.789062 248.921875 C 242.824219 251.210938 241.785156 253.46875 240.675781 255.691406 C 239.566406 257.914062 238.386719 260.097656 237.136719 262.246094 C 235.882812 264.390625 234.566406 266.496094 233.179688 268.558594 C 231.792969 270.621094 230.339844 272.632812 228.824219 274.601562 C 227.308594 276.570312 225.730469 278.488281 224.089844 280.355469 C 222.453125 282.222656 220.753906 284.03125 218.996094 285.789062 C 217.390625 287.410156 215.636719 288.855469 213.742188 290.125 C 211.84375 291.394531 209.84375 292.464844 207.734375 293.339844 C 205.625 294.210938 203.449219 294.867188 201.210938 295.308594 C 198.972656 295.75 196.710938 295.96875 194.429688 295.957031 L 193.441406 295.957031 L 193.441406 123.613281 L 236.34375 123.613281 Z M 223.15625 93.898438 L 220.226562 93.898438 L 221.714844 82.011719 L 239.96875 82.011719 C 239.664062 82.875 239.292969 83.710938 238.859375 84.515625 C 238.421875 85.324219 237.929688 86.089844 237.375 86.820312 C 236.824219 87.550781 236.214844 88.234375 235.558594 88.871094 C 234.898438 89.507812 234.195312 90.09375 233.449219 90.621094 C 232.699219 91.148438 231.917969 91.617188 231.097656 92.027344 C 230.277344 92.433594 229.429688 92.777344 228.558594 93.054688 C 227.683594 93.335938 226.792969 93.542969 225.890625 93.683594 C 224.984375 93.828125 224.074219 93.898438 223.15625 93.898438 Z M 240.988281 58.242188 C 241.734375 58.242188 242.472656 58.3125 243.222656 58.335938 L 237.3125 70.125 L 223.050781 70.125 C 223.058594 69.535156 222.980469 68.957031 222.8125 68.390625 C 222.644531 67.824219 222.398438 67.296875 222.070312 66.804688 C 221.746094 66.3125 221.351562 65.878906 220.894531 65.503906 C 220.4375 65.132812 219.9375 64.835938 219.390625 64.613281 L 203.492188 58.242188 Z M 187.5 40.410156 C 187.890625 40.410156 188.277344 40.449219 188.660156 40.527344 C 189.042969 40.601562 189.414062 40.714844 189.773438 40.863281 C 190.132812 41.015625 190.476562 41.195312 190.800781 41.414062 C 191.125 41.628906 191.425781 41.875 191.703125 42.152344 C 191.976562 42.429688 192.222656 42.730469 192.441406 43.054688 C 192.65625 43.378906 192.839844 43.71875 192.992188 44.082031 C 193.140625 44.441406 193.253906 44.8125 193.328125 45.195312 C 193.40625 45.578125 193.441406 45.964844 193.441406 46.355469 C 193.441406 46.746094 193.40625 47.132812 193.328125 47.515625 C 193.253906 47.898438 193.140625 48.269531 192.992188 48.628906 C 192.839844 48.988281 192.65625 49.332031 192.441406 49.65625 C 192.222656 49.980469 191.976562 50.28125 191.703125 50.558594 C 191.425781 50.832031 191.125 51.078125 190.800781 51.296875 C 190.476562 51.511719 190.132812 51.695312 189.773438 51.84375 C 189.414062 51.996094 189.042969 52.109375 188.660156 52.183594 C 188.277344 52.261719 187.890625 52.296875 187.5 52.296875 C 187.109375 52.296875 186.722656 52.261719 186.339844 52.183594 C 185.957031 52.109375 185.585938 51.996094 185.226562 51.84375 C 184.863281 51.695312 184.523438 51.511719 184.199219 51.296875 C 183.875 51.078125 183.574219 50.832031 183.296875 50.558594 C 183.023438 50.28125 182.777344 49.980469 182.558594 49.65625 C 182.34375 49.332031 182.160156 48.988281 182.007812 48.628906 C 181.859375 48.269531 181.746094 47.898438 181.671875 47.515625 C 181.59375 47.132812 181.558594 46.746094 181.558594 46.355469 C 181.558594 45.964844 181.59375 45.578125 181.671875 45.195312 C 181.746094 44.8125 181.859375 44.441406 182.007812 44.082031 C 182.160156 43.71875 182.34375 43.378906 182.558594 43.054688 C 182.777344 42.730469 183.023438 42.429688 183.296875 42.152344 C 183.574219 41.875 183.875 41.628906 184.199219 41.414062 C 184.523438 41.195312 184.863281 41.015625 185.226562 40.863281 C 185.585938 40.714844 185.957031 40.601562 186.339844 40.527344 C 186.722656 40.449219 187.109375 40.410156 187.5 40.410156 Z M 134.011719 58.242188 L 171.507812 58.242188 L 155.574219 64.617188 C 155.027344 64.839844 154.527344 65.140625 154.074219 65.515625 C 153.617188 65.886719 153.226562 66.320312 152.902344 66.8125 C 152.574219 67.300781 152.328125 67.832031 152.160156 68.394531 C 151.996094 68.960938 151.914062 69.539062 151.917969 70.125 L 137.65625 70.125 L 131.761719 58.335938 C 132.535156 58.3125 133.265625 58.242188 134.011719 58.242188 Z M 151.84375 93.898438 C 150.925781 93.898438 150.015625 93.828125 149.109375 93.683594 C 148.207031 93.542969 147.316406 93.335938 146.441406 93.054688 C 145.570312 92.777344 144.722656 92.433594 143.902344 92.027344 C 143.082031 91.617188 142.300781 91.148438 141.550781 90.621094 C 140.804688 90.09375 140.101562 89.507812 139.441406 88.871094 C 138.785156 88.234375 138.175781 87.550781 137.625 86.820312 C 137.070312 86.089844 136.578125 85.324219 136.140625 84.515625 C 135.707031 83.710938 135.335938 82.875 135.03125 82.011719 L 153.28125 82.011719 L 154.765625 93.898438 Z M 164.25 73.949219 L 187.5 64.640625 L 210.742188 73.941406 L 206.023438 111.726562 L 168.976562 111.726562 Z M 138.65625 123.613281 L 181.558594 123.613281 L 181.558594 295.957031 L 180.566406 295.957031 C 178.285156 295.964844 176.027344 295.75 173.789062 295.308594 C 171.550781 294.867188 169.378906 294.210938 167.273438 293.335938 C 165.167969 292.464844 163.167969 291.394531 161.273438 290.125 C 159.378906 288.855469 157.628906 287.414062 156.019531 285.796875 L 151.84375 290.015625 L 156.042969 285.8125 C 154.285156 284.058594 152.585938 282.246094 150.945312 280.378906 C 149.304688 278.511719 147.726562 276.59375 146.207031 274.625 C 144.691406 272.660156 143.238281 270.644531 141.851562 268.582031 C 140.460938 266.519531 139.144531 264.414062 137.890625 262.269531 C 136.636719 260.121094 135.457031 257.9375 134.34375 255.714844 C 133.234375 253.492188 132.195312 251.234375 131.230469 248.945312 C 130.261719 246.65625 129.371094 244.335938 128.554688 241.988281 C 127.738281 239.640625 127 237.269531 126.335938 234.875 C 125.671875 232.480469 125.085938 230.066406 124.578125 227.632812 C 124.066406 225.203125 123.636719 222.753906 123.289062 220.292969 C 122.9375 217.832031 122.664062 215.363281 122.472656 212.886719 C 122.28125 210.410156 122.171875 207.925781 122.140625 205.441406 C 122.105469 202.957031 122.15625 200.472656 122.285156 197.992188 C 122.410156 195.507812 122.621094 193.035156 122.90625 190.566406 C 123.195312 188.097656 123.5625 185.640625 124.007812 183.195312 C 124.453125 180.75 124.976562 178.324219 125.582031 175.910156 Z M 138.65625 123.613281 " fill-opacity="1" fill-rule="nonzero"/></svg>