<svg xmlns="http://www.w3.org/2000/svg" xmlns:xlink="http://www.w3.org/1999/xlink" width="500" zoomAndPan="magnify" viewBox="0 0 375 374.999991" height="500" preserveAspectRatio="xMidYMid meet" version="1.0"><metadata><ContainsAiGeneratedContent>Yes</ContainsAiGeneratedContent></metadata><defs><clipPath id="c5216fe415"><path d="M 10.078125 0 L 364.828125 0 L 364.828125 374 L 10.078125 374 Z M 10.078125 0 " clip-rule="nonzero"/></clipPath></defs><g clip-path="url(#c5216fe415)"><path fill="#ffffff" d="M 361.683594 227.21875 L 328.136719 198.59375 C 326.40625 197.105469 324.472656 195.96875 322.332031 195.175781 C 320.191406 194.382812 317.980469 193.988281 315.699219 193.992188 L 291.09375 193.992188 L 291.09375 170.988281 C 291.09375 170.550781 291.050781 170.117188 290.964844 169.6875 C 290.878906 169.261719 290.753906 168.84375 290.585938 168.441406 C 290.417969 168.035156 290.214844 167.652344 289.972656 167.289062 C 289.726562 166.925781 289.453125 166.589844 289.144531 166.28125 C 288.835938 165.972656 288.496094 165.695312 288.132812 165.453125 C 287.769531 165.210938 287.386719 165.003906 286.984375 164.835938 C 286.578125 164.667969 286.164062 164.542969 285.734375 164.457031 C 285.304688 164.375 284.871094 164.332031 284.433594 164.332031 L 264.71875 164.332031 C 264.410156 162.296875 264.039062 160.289062 263.574219 158.308594 L 305.566406 141.964844 C 307.144531 141.351562 308.613281 140.542969 309.976562 139.539062 C 311.339844 138.53125 312.542969 137.367188 313.597656 136.039062 C 314.648438 134.710938 315.507812 133.269531 316.171875 131.710938 C 316.839844 130.15625 317.292969 128.539062 317.527344 126.863281 L 320.015625 109.421875 C 320.117188 108.730469 320.335938 108.082031 320.671875 107.46875 C 321.003906 106.855469 321.433594 106.320312 321.960938 105.863281 C 322.488281 105.402344 323.078125 105.050781 323.730469 104.804688 C 324.382812 104.558594 325.058594 104.433594 325.757812 104.429688 L 340.203125 104.429688 C 340.640625 104.429688 341.074219 104.386719 341.503906 104.300781 C 341.933594 104.214844 342.347656 104.089844 342.753906 103.921875 C 343.15625 103.753906 343.539062 103.550781 343.902344 103.308594 C 344.265625 103.066406 344.601562 102.789062 344.914062 102.480469 C 345.222656 102.171875 345.496094 101.835938 345.738281 101.472656 C 345.984375 101.109375 346.1875 100.722656 346.355469 100.320312 C 346.523438 99.917969 346.648438 99.5 346.734375 99.070312 C 346.820312 98.640625 346.863281 98.210938 346.863281 97.773438 C 346.863281 97.335938 346.820312 96.902344 346.734375 96.472656 C 346.648438 96.042969 346.523438 95.628906 346.355469 95.226562 C 346.1875 94.820312 345.984375 94.4375 345.738281 94.074219 C 345.496094 93.710938 345.222656 93.375 344.914062 93.066406 C 344.601562 92.753906 344.265625 92.480469 343.902344 92.238281 C 343.539062 91.992188 343.15625 91.789062 342.753906 91.621094 C 342.347656 91.453125 341.933594 91.328125 341.503906 91.242188 C 341.074219 91.15625 340.640625 91.113281 340.203125 91.113281 L 325.757812 91.113281 C 324.617188 91.121094 323.488281 91.226562 322.367188 91.433594 C 321.246094 91.640625 320.148438 91.945312 319.082031 92.34375 C 318.015625 92.746094 316.992188 93.238281 316.011719 93.824219 C 315.03125 94.40625 314.113281 95.070312 313.25 95.820312 C 312.390625 96.566406 311.601562 97.382812 310.886719 98.273438 C 310.167969 99.160156 309.539062 100.105469 308.988281 101.105469 C 308.441406 102.105469 307.988281 103.144531 307.625 104.226562 C 307.261719 105.308594 307 106.414062 306.832031 107.539062 L 304.34375 125.003906 C 304.273438 125.507812 304.136719 125.996094 303.9375 126.464844 C 303.734375 126.933594 303.476562 127.367188 303.160156 127.769531 C 302.84375 128.167969 302.480469 128.519531 302.070312 128.824219 C 301.660156 129.125 301.214844 129.371094 300.742188 129.554688 L 259.492188 145.609375 C 258.507812 143.292969 257.417969 141.035156 256.222656 138.832031 C 257.445312 138.574219 258.652344 138.261719 259.847656 137.894531 C 261.042969 137.53125 262.21875 137.117188 263.378906 136.65625 C 264.539062 136.191406 265.675781 135.679688 266.792969 135.117188 C 267.90625 134.558594 268.996094 133.953125 270.0625 133.296875 C 271.125 132.644531 272.160156 131.949219 273.167969 131.207031 C 274.171875 130.464844 275.144531 129.683594 276.082031 128.859375 C 277.019531 128.035156 277.921875 127.175781 278.789062 126.273438 C 279.652344 125.375 280.480469 124.4375 281.265625 123.46875 C 282.050781 122.496094 282.796875 121.496094 283.496094 120.460938 C 284.195312 119.429688 284.851562 118.367188 285.464844 117.277344 C 286.074219 116.1875 286.636719 115.074219 287.152344 113.9375 C 287.667969 112.800781 288.136719 111.644531 288.554688 110.464844 C 288.972656 109.289062 289.339844 108.097656 289.65625 106.890625 C 289.972656 105.679688 290.234375 104.460938 290.449219 103.230469 C 290.660156 102 290.820312 100.761719 290.929688 99.519531 C 291.035156 98.273438 291.089844 97.027344 291.09375 95.78125 L 291.09375 26.59375 C 291.09375 25.746094 291.054688 24.902344 290.972656 24.0625 C 290.890625 23.21875 290.765625 22.382812 290.601562 21.550781 C 290.4375 20.722656 290.234375 19.902344 289.988281 19.089844 C 289.742188 18.28125 289.460938 17.484375 289.136719 16.699219 C 288.8125 15.917969 288.453125 15.152344 288.054688 14.40625 C 287.65625 13.660156 287.21875 12.933594 286.75 12.230469 C 286.28125 11.527344 285.777344 10.847656 285.238281 10.195312 C 284.703125 9.539062 284.136719 8.914062 283.535156 8.3125 C 282.9375 7.714844 282.3125 7.148438 281.65625 6.609375 C 281.003906 6.074219 280.324219 5.570312 279.621094 5.101562 C 278.914062 4.628906 278.191406 4.195312 277.441406 3.796875 C 276.695312 3.398438 275.929688 3.039062 275.148438 2.714844 C 274.367188 2.390625 273.570312 2.105469 272.761719 1.863281 C 271.949219 1.617188 271.128906 1.410156 270.300781 1.246094 C 269.46875 1.082031 268.632812 0.960938 267.789062 0.878906 C 266.945312 0.796875 266.101562 0.757812 265.257812 0.757812 C 264.410156 0.757812 263.574219 0.84375 262.742188 1.007812 C 261.914062 1.171875 261.109375 1.417969 260.328125 1.742188 C 259.546875 2.066406 258.804688 2.464844 258.101562 2.933594 C 257.398438 3.402344 256.746094 3.9375 256.148438 4.535156 C 255.550781 5.132812 255.015625 5.785156 254.546875 6.488281 C 254.074219 7.191406 253.679688 7.933594 253.355469 8.714844 C 253.03125 9.496094 252.785156 10.300781 252.621094 11.128906 C 252.453125 11.960938 252.371094 12.796875 252.371094 13.644531 L 252.371094 90.300781 C 252.371094 90.898438 252.339844 91.496094 252.28125 92.089844 C 252.222656 92.683594 252.132812 93.273438 252.015625 93.859375 C 251.898438 94.445312 251.753906 95.027344 251.582031 95.597656 C 251.40625 96.167969 251.207031 96.730469 250.976562 97.28125 C 250.746094 97.835938 250.492188 98.375 250.210938 98.902344 C 249.929688 99.429688 249.621094 99.941406 249.289062 100.4375 C 248.957031 100.933594 248.601562 101.414062 248.222656 101.875 C 247.84375 102.335938 247.441406 102.777344 247.019531 103.199219 C 246.597656 103.625 246.15625 104.023438 245.691406 104.402344 C 245.230469 104.78125 244.753906 105.136719 244.253906 105.46875 C 243.757812 105.800781 243.246094 106.109375 242.71875 106.390625 C 242.191406 106.671875 241.652344 106.929688 241.101562 107.15625 C 240.550781 107.386719 239.988281 107.585938 239.417969 107.761719 C 238.84375 107.933594 238.265625 108.082031 237.679688 108.199219 C 237.09375 108.316406 236.503906 108.402344 235.910156 108.460938 C 235.316406 108.519531 234.71875 108.550781 234.121094 108.550781 L 226.8125 108.550781 C 224.953125 107.460938 223.050781 106.453125 221.101562 105.515625 C 222.078125 104.734375 222.988281 103.886719 223.835938 102.964844 C 224.679688 102.042969 225.449219 101.0625 226.144531 100.023438 C 226.835938 98.984375 227.445312 97.894531 227.972656 96.761719 C 228.496094 95.625 228.933594 94.457031 229.277344 93.257812 C 229.621094 92.054688 229.871094 90.832031 230.027344 89.59375 C 230.179688 88.351562 230.242188 87.109375 230.203125 85.859375 C 230.164062 84.609375 230.03125 83.371094 229.804688 82.140625 C 229.574219 80.910156 229.25 79.707031 228.835938 78.527344 C 228.417969 77.347656 227.914062 76.210938 227.324219 75.109375 C 226.730469 74.007812 226.058594 72.957031 225.304688 71.960938 C 224.550781 70.964844 223.722656 70.03125 222.824219 69.164062 C 221.925781 68.292969 220.964844 67.5 219.941406 66.78125 C 218.917969 66.058594 217.847656 65.421875 216.726562 64.867188 C 215.605469 64.3125 214.449219 63.851562 213.257812 63.472656 C 212.066406 63.097656 210.851562 62.820312 209.613281 62.632812 C 208.378906 62.445312 207.136719 62.351562 205.886719 62.359375 L 202.515625 62.359375 C 202.082031 62.359375 201.648438 62.402344 201.21875 62.488281 C 200.789062 62.570312 200.375 62.699219 199.96875 62.867188 C 199.566406 63.03125 199.183594 63.238281 198.820312 63.480469 C 198.457031 63.722656 198.117188 64 197.808594 64.308594 C 197.5 64.617188 197.226562 64.953125 196.980469 65.316406 C 196.738281 65.679688 196.535156 66.066406 196.367188 66.46875 C 196.199219 66.871094 196.074219 67.289062 195.988281 67.71875 C 195.902344 68.144531 195.859375 68.578125 195.859375 69.015625 C 195.859375 69.453125 195.902344 69.886719 195.988281 70.316406 C 196.074219 70.742188 196.199219 71.160156 196.367188 71.5625 C 196.535156 71.96875 196.738281 72.351562 196.980469 72.714844 C 197.226562 73.078125 197.5 73.414062 197.808594 73.722656 C 198.117188 74.03125 198.457031 74.308594 198.820312 74.550781 C 199.183594 74.792969 199.566406 75 199.96875 75.167969 C 200.375 75.335938 200.789062 75.460938 201.21875 75.546875 C 201.648438 75.632812 202.082031 75.675781 202.515625 75.675781 L 205.886719 75.675781 C 206.609375 75.671875 207.328125 75.742188 208.039062 75.878906 C 208.75 76.019531 209.4375 76.226562 210.109375 76.503906 C 210.777344 76.78125 211.414062 77.117188 212.015625 77.519531 C 212.621094 77.921875 213.179688 78.378906 213.691406 78.890625 C 214.203125 79.402344 214.660156 79.957031 215.066406 80.558594 C 215.46875 81.160156 215.808594 81.796875 216.085938 82.464844 C 216.363281 83.136719 216.574219 83.824219 216.714844 84.535156 C 216.855469 85.246094 216.925781 85.964844 216.925781 86.6875 C 216.925781 87.410156 216.855469 88.128906 216.714844 88.839844 C 216.574219 89.550781 216.363281 90.238281 216.085938 90.910156 C 215.808594 91.578125 215.46875 92.214844 215.066406 92.816406 C 214.660156 93.417969 214.203125 93.972656 213.691406 94.484375 C 213.179688 94.996094 212.621094 95.453125 212.015625 95.855469 C 211.414062 96.257812 210.777344 96.59375 210.109375 96.871094 C 209.4375 97.144531 208.75 97.355469 208.039062 97.492188 C 207.328125 97.632812 206.609375 97.703125 205.886719 97.699219 L 168.449219 97.699219 C 167.726562 97.703125 167.007812 97.632812 166.296875 97.492188 C 165.585938 97.355469 164.898438 97.144531 164.226562 96.871094 C 163.558594 96.59375 162.921875 96.253906 162.320312 95.855469 C 161.714844 95.453125 161.15625 94.996094 160.644531 94.484375 C 160.132812 93.972656 159.675781 93.417969 159.273438 92.8125 C 158.867188 92.210938 158.527344 91.578125 158.25 90.90625 C 157.972656 90.238281 157.765625 89.550781 157.621094 88.839844 C 157.480469 88.128906 157.410156 87.410156 157.410156 86.6875 C 157.410156 85.964844 157.480469 85.246094 157.621094 84.535156 C 157.765625 83.824219 157.972656 83.136719 158.25 82.464844 C 158.527344 81.796875 158.867188 81.164062 159.273438 80.558594 C 159.675781 79.957031 160.132812 79.402344 160.644531 78.890625 C 161.15625 78.378906 161.714844 77.921875 162.320312 77.519531 C 162.921875 77.121094 163.558594 76.78125 164.226562 76.503906 C 164.898438 76.230469 165.585938 76.019531 166.296875 75.882812 C 167.007812 75.742188 167.726562 75.671875 168.449219 75.675781 L 171.816406 75.675781 C 172.253906 75.671875 172.6875 75.632812 173.117188 75.546875 C 173.546875 75.460938 173.960938 75.335938 174.367188 75.167969 C 174.769531 75 175.152344 74.792969 175.515625 74.550781 C 175.878906 74.308594 176.214844 74.03125 176.523438 73.722656 C 176.835938 73.414062 177.109375 73.078125 177.351562 72.714844 C 177.597656 72.351562 177.800781 71.96875 177.96875 71.5625 C 178.136719 71.160156 178.261719 70.742188 178.347656 70.316406 C 178.433594 69.886719 178.476562 69.453125 178.476562 69.015625 C 178.476562 68.578125 178.433594 68.144531 178.347656 67.71875 C 178.261719 67.289062 178.136719 66.871094 177.96875 66.46875 C 177.800781 66.066406 177.597656 65.679688 177.351562 65.316406 C 177.109375 64.953125 176.835938 64.617188 176.523438 64.308594 C 176.214844 64 175.878906 63.722656 175.515625 63.480469 C 175.152344 63.238281 174.769531 63.03125 174.367188 62.867188 C 173.960938 62.699219 173.546875 62.570312 173.117188 62.488281 C 172.6875 62.402344 172.253906 62.359375 171.816406 62.359375 L 168.449219 62.359375 C 167.199219 62.351562 165.957031 62.445312 164.71875 62.632812 C 163.484375 62.820312 162.269531 63.097656 161.078125 63.472656 C 159.886719 63.851562 158.726562 64.3125 157.609375 64.867188 C 156.488281 65.421875 155.414062 66.058594 154.394531 66.78125 C 153.371094 67.5 152.410156 68.292969 151.511719 69.164062 C 150.613281 70.03125 149.785156 70.964844 149.03125 71.960938 C 148.277344 72.957031 147.605469 74.007812 147.011719 75.109375 C 146.417969 76.210938 145.914062 77.347656 145.5 78.527344 C 145.082031 79.707031 144.761719 80.910156 144.53125 82.140625 C 144.304688 83.371094 144.167969 84.609375 144.132812 85.859375 C 144.09375 87.109375 144.152344 88.351562 144.308594 89.59375 C 144.464844 90.832031 144.714844 92.054688 145.058594 93.257812 C 145.402344 94.457031 145.839844 95.625 146.363281 96.761719 C 146.890625 97.894531 147.5 98.984375 148.191406 100.023438 C 148.886719 101.0625 149.65625 102.042969 150.5 102.964844 C 151.347656 103.886719 152.257812 104.734375 153.234375 105.515625 C 151.285156 106.453125 149.378906 107.460938 147.523438 108.550781 L 140.148438 108.550781 C 139.550781 108.550781 138.957031 108.519531 138.359375 108.460938 C 137.765625 108.402344 137.175781 108.316406 136.589844 108.199219 C 136.003906 108.082031 135.425781 107.933594 134.851562 107.761719 C 134.28125 107.585938 133.71875 107.386719 133.167969 107.15625 C 132.617188 106.929688 132.078125 106.671875 131.550781 106.390625 C 131.023438 106.109375 130.511719 105.800781 130.015625 105.46875 C 129.515625 105.136719 129.039062 104.78125 128.578125 104.402344 C 128.113281 104.023438 127.671875 103.625 127.25 103.199219 C 126.828125 102.777344 126.425781 102.335938 126.046875 101.875 C 125.667969 101.414062 125.3125 100.933594 124.980469 100.4375 C 124.648438 99.941406 124.339844 99.429688 124.058594 98.902344 C 123.777344 98.375 123.523438 97.835938 123.292969 97.28125 C 123.0625 96.730469 122.863281 96.167969 122.6875 95.597656 C 122.515625 95.027344 122.371094 94.445312 122.253906 93.859375 C 122.136719 93.273438 122.046875 92.683594 121.988281 92.089844 C 121.929688 91.496094 121.898438 90.898438 121.898438 90.300781 L 121.898438 13.644531 C 121.898438 12.796875 121.816406 11.960938 121.648438 11.128906 C 121.484375 10.300781 121.238281 9.496094 120.914062 8.714844 C 120.589844 7.933594 120.195312 7.191406 119.722656 6.488281 C 119.253906 5.785156 118.71875 5.132812 118.121094 4.535156 C 117.523438 3.9375 116.871094 3.402344 116.167969 2.933594 C 115.464844 2.464844 114.722656 2.066406 113.941406 1.742188 C 113.160156 1.417969 112.355469 1.171875 111.527344 1.007812 C 110.695312 0.84375 109.859375 0.757812 109.011719 0.757812 C 107.320312 0.746094 105.640625 0.902344 103.980469 1.226562 C 102.316406 1.550781 100.703125 2.039062 99.140625 2.6875 C 97.574219 3.335938 96.089844 4.132812 94.6875 5.078125 C 93.28125 6.027344 91.984375 7.101562 90.796875 8.308594 C 89.59375 9.507812 88.519531 10.8125 87.574219 12.222656 C 86.632812 13.636719 85.835938 15.125 85.1875 16.695312 C 84.539062 18.265625 84.050781 19.882812 83.722656 21.546875 C 83.394531 23.214844 83.234375 24.894531 83.242188 26.59375 L 83.242188 95.78125 C 83.242188 97.027344 83.296875 98.273438 83.40625 99.519531 C 83.511719 100.761719 83.671875 102 83.886719 103.230469 C 84.097656 104.460938 84.363281 105.679688 84.679688 106.890625 C 84.996094 108.097656 85.363281 109.289062 85.78125 110.46875 C 86.199219 111.644531 86.664062 112.800781 87.179688 113.9375 C 87.699219 115.074219 88.261719 116.1875 88.871094 117.277344 C 89.480469 118.367188 90.136719 119.429688 90.839844 120.460938 C 91.539062 121.496094 92.28125 122.5 93.070312 123.46875 C 93.855469 124.4375 94.679688 125.375 95.546875 126.273438 C 96.410156 127.175781 97.3125 128.035156 98.253906 128.859375 C 99.191406 129.683594 100.164062 130.464844 101.167969 131.207031 C 102.171875 131.949219 103.207031 132.644531 104.273438 133.296875 C 105.335938 133.953125 106.425781 134.558594 107.542969 135.117188 C 108.660156 135.679688 109.796875 136.191406 110.957031 136.65625 C 112.117188 137.121094 113.292969 137.53125 114.488281 137.898438 C 115.683594 138.261719 116.890625 138.574219 118.113281 138.832031 C 116.917969 141.03125 115.828125 143.289062 114.839844 145.609375 L 73.652344 129.554688 C 72.679688 129.171875 71.867188 128.570312 71.214844 127.753906 C 70.558594 126.9375 70.152344 126.011719 69.992188 124.976562 L 67.5 107.542969 C 67.335938 106.414062 67.070312 105.3125 66.710938 104.230469 C 66.347656 103.148438 65.894531 102.105469 65.34375 101.105469 C 64.796875 100.105469 64.164062 99.164062 63.449219 98.273438 C 62.734375 97.386719 61.945312 96.570312 61.085938 95.820312 C 60.222656 95.074219 59.304688 94.40625 58.324219 93.824219 C 57.34375 93.238281 56.320312 92.746094 55.253906 92.347656 C 54.183594 91.945312 53.089844 91.640625 51.96875 91.433594 C 50.847656 91.226562 49.714844 91.121094 48.574219 91.117188 L 34.128906 91.117188 C 33.691406 91.117188 33.257812 91.15625 32.832031 91.242188 C 32.402344 91.328125 31.984375 91.453125 31.582031 91.621094 C 31.179688 91.789062 30.792969 91.996094 30.429688 92.238281 C 30.066406 92.480469 29.730469 92.757812 29.421875 93.066406 C 29.113281 93.375 28.835938 93.710938 28.59375 94.074219 C 28.351562 94.4375 28.144531 94.820312 27.980469 95.226562 C 27.8125 95.628906 27.683594 96.046875 27.601562 96.472656 C 27.515625 96.902344 27.472656 97.335938 27.472656 97.773438 C 27.472656 98.210938 27.515625 98.644531 27.601562 99.070312 C 27.683594 99.5 27.8125 99.917969 27.980469 100.320312 C 28.144531 100.722656 28.351562 101.109375 28.59375 101.472656 C 28.835938 101.835938 29.113281 102.171875 29.421875 102.480469 C 29.730469 102.789062 30.066406 103.066406 30.429688 103.308594 C 30.792969 103.550781 31.179688 103.757812 31.582031 103.921875 C 31.984375 104.089844 32.402344 104.21875 32.832031 104.300781 C 33.257812 104.386719 33.691406 104.429688 34.128906 104.429688 L 48.574219 104.429688 C 49.273438 104.433594 49.949219 104.558594 50.601562 104.804688 C 51.257812 105.050781 51.847656 105.40625 52.375 105.863281 C 52.898438 106.320312 53.332031 106.855469 53.664062 107.46875 C 54 108.082031 54.214844 108.734375 54.316406 109.425781 L 56.820312 126.921875 C 57.074219 128.59375 57.535156 130.203125 58.214844 131.75 C 58.890625 133.296875 59.753906 134.730469 60.808594 136.050781 C 61.863281 137.371094 63.070312 138.53125 64.429688 139.535156 C 65.789062 140.539062 67.253906 141.347656 68.828125 141.960938 L 110.761719 158.308594 C 110.292969 160.285156 109.925781 162.296875 109.613281 164.332031 L 89.898438 164.332031 C 89.460938 164.332031 89.027344 164.375 88.601562 164.457031 C 88.171875 164.542969 87.753906 164.671875 87.351562 164.835938 C 86.945312 165.003906 86.5625 165.210938 86.199219 165.453125 C 85.835938 165.695312 85.5 165.972656 85.191406 166.28125 C 84.882812 166.589844 84.605469 166.925781 84.363281 167.289062 C 84.121094 167.652344 83.914062 168.035156 83.746094 168.441406 C 83.582031 168.84375 83.453125 169.261719 83.371094 169.6875 C 83.285156 170.117188 83.242188 170.550781 83.242188 170.988281 L 83.242188 193.992188 L 58.574219 193.992188 C 56.296875 193.988281 54.089844 194.378906 51.953125 195.167969 C 49.8125 195.957031 47.878906 197.09375 46.152344 198.578125 L 12.648438 227.222656 C 12.316406 227.507812 12.015625 227.820312 11.742188 228.164062 C 11.472656 228.507812 11.238281 228.871094 11.039062 229.261719 C 10.839844 229.652344 10.679688 230.058594 10.5625 230.476562 C 10.441406 230.898438 10.367188 231.328125 10.332031 231.761719 C 10.296875 232.199219 10.304688 232.632812 10.355469 233.070312 C 10.40625 233.503906 10.5 233.929688 10.636719 234.34375 C 10.769531 234.761719 10.945312 235.160156 11.160156 235.542969 C 11.371094 235.921875 11.621094 236.28125 11.90625 236.613281 C 12.1875 236.945312 12.503906 237.246094 12.847656 237.515625 C 13.191406 237.789062 13.558594 238.023438 13.945312 238.222656 C 14.335938 238.417969 14.742188 238.578125 15.164062 238.695312 C 15.585938 238.816406 16.011719 238.890625 16.449219 238.925781 C 16.886719 238.960938 17.320312 238.949219 17.753906 238.898438 C 18.1875 238.847656 18.613281 238.753906 19.03125 238.617188 C 19.445312 238.480469 19.84375 238.308594 20.226562 238.09375 C 20.605469 237.878906 20.964844 237.628906 21.296875 237.34375 L 54.816406 208.683594 C 55.902344 207.769531 57.15625 207.308594 58.574219 207.304688 L 83.242188 207.304688 L 83.242188 235.664062 L 64.667969 251.644531 C 63.851562 252.355469 63.097656 253.128906 62.410156 253.964844 C 61.726562 254.800781 61.113281 255.691406 60.578125 256.632812 C 60.042969 257.570312 59.589844 258.550781 59.21875 259.566406 C 58.847656 260.585938 58.5625 261.625 58.371094 262.691406 C 58.175781 263.753906 58.070312 264.828125 58.058594 265.910156 C 58.042969 266.992188 58.121094 268.070312 58.289062 269.136719 C 58.460938 270.207031 58.714844 271.253906 59.0625 272.28125 C 59.40625 273.304688 59.835938 274.296875 60.351562 275.25 L 80.796875 312.960938 C 81.261719 313.824219 81.488281 314.742188 81.476562 315.722656 C 81.46875 316.699219 81.222656 317.617188 80.746094 318.46875 L 55.585938 363.679688 C 55.375 364.0625 55.207031 364.460938 55.074219 364.875 C 54.945312 365.292969 54.855469 365.714844 54.804688 366.148438 C 54.757812 366.582031 54.753906 367.015625 54.789062 367.449219 C 54.828125 367.882812 54.90625 368.308594 55.027344 368.726562 C 55.148438 369.144531 55.308594 369.546875 55.507812 369.933594 C 55.707031 370.320312 55.941406 370.683594 56.214844 371.023438 C 56.484375 371.367188 56.785156 371.675781 57.117188 371.957031 C 57.449219 372.238281 57.808594 372.484375 58.1875 372.699219 C 58.566406 372.910156 58.964844 373.082031 59.378906 373.214844 C 59.792969 373.351562 60.21875 373.441406 60.648438 373.492188 C 61.082031 373.542969 61.515625 373.550781 61.949219 373.515625 C 62.382812 373.484375 62.808594 373.40625 63.226562 373.289062 C 63.648438 373.171875 64.050781 373.015625 64.4375 372.816406 C 64.828125 372.621094 65.191406 372.386719 65.535156 372.117188 C 65.878906 371.851562 66.191406 371.550781 66.472656 371.21875 C 66.757812 370.890625 67.007812 370.535156 67.222656 370.15625 L 92.375 324.957031 C 93.15625 323.554688 93.75 322.074219 94.15625 320.523438 C 94.566406 318.96875 94.773438 317.386719 94.78125 315.78125 C 94.792969 314.175781 94.601562 312.59375 94.210938 311.035156 C 93.820312 309.476562 93.246094 307.992188 92.480469 306.578125 L 72.050781 268.902344 C 71.738281 268.320312 71.527344 267.703125 71.425781 267.050781 C 71.320312 266.398438 71.328125 265.746094 71.445312 265.097656 C 71.5625 264.445312 71.785156 263.835938 72.109375 263.257812 C 72.4375 262.683594 72.847656 262.179688 73.347656 261.746094 L 84.246094 252.367188 C 84.449219 253.910156 84.6875 255.449219 84.960938 256.984375 C 85.234375 258.515625 85.539062 260.042969 85.882812 261.5625 C 86.222656 263.082031 86.597656 264.59375 87.007812 266.09375 C 87.417969 267.597656 87.859375 269.089844 88.335938 270.574219 C 88.8125 272.054688 89.324219 273.527344 89.867188 274.988281 C 90.410156 276.445312 90.984375 277.894531 91.589844 279.328125 C 92.199219 280.761719 92.839844 282.179688 93.511719 283.585938 C 94.183594 284.992188 94.886719 286.378906 95.621094 287.753906 C 96.355469 289.125 97.117188 290.484375 97.914062 291.820312 C 98.710938 293.160156 99.535156 294.480469 100.390625 295.78125 C 101.242188 297.085938 102.128906 298.367188 103.039062 299.628906 C 103.953125 300.890625 104.890625 302.132812 105.859375 303.351562 C 106.828125 304.570312 107.824219 305.769531 108.847656 306.945312 C 109.867188 308.117188 110.917969 309.269531 111.988281 310.398438 C 113.0625 311.527344 114.164062 312.628906 115.285156 313.707031 C 116.410156 314.785156 117.558594 315.839844 118.726562 316.863281 C 119.898438 317.890625 121.09375 318.890625 122.308594 319.863281 C 123.523438 320.835938 124.761719 321.78125 126.019531 322.699219 C 127.277344 323.617188 128.558594 324.507812 129.855469 325.367188 C 131.15625 326.226562 132.472656 327.054688 133.808594 327.855469 C 135.144531 328.65625 136.496094 329.425781 137.867188 330.167969 C 139.238281 330.90625 140.625 331.613281 142.027344 332.292969 C 143.429688 332.96875 144.847656 333.613281 146.277344 334.226562 C 147.707031 334.839844 149.152344 335.421875 150.609375 335.96875 C 152.070312 336.519531 153.539062 337.035156 155.019531 337.515625 C 156.5 338 157.988281 338.449219 159.492188 338.863281 C 160.992188 339.277344 162.5 339.660156 164.019531 340.007812 C 165.539062 340.355469 167.0625 340.667969 168.59375 340.945312 C 170.128906 341.222656 171.664062 341.46875 173.207031 341.675781 C 174.75 341.886719 176.296875 342.0625 177.851562 342.203125 C 179.402344 342.339844 180.953125 342.445312 182.511719 342.515625 C 184.066406 342.585938 185.621094 342.621094 187.179688 342.621094 C 188.738281 342.621094 190.292969 342.585938 191.847656 342.515625 C 193.40625 342.445312 194.957031 342.339844 196.507812 342.199219 C 198.0625 342.058594 199.609375 341.882812 201.152344 341.675781 C 202.695312 341.464844 204.230469 341.21875 205.765625 340.941406 C 207.296875 340.660156 208.820312 340.347656 210.339844 340 C 211.855469 339.652344 213.367188 339.273438 214.867188 338.855469 C 216.367188 338.441406 217.859375 337.992188 219.339844 337.507812 C 220.820312 337.027344 222.289062 336.511719 223.746094 335.960938 C 225.203125 335.414062 226.648438 334.832031 228.082031 334.21875 C 229.511719 333.605469 230.929688 332.957031 232.332031 332.28125 C 233.734375 331.601562 235.121094 330.894531 236.488281 330.15625 C 237.859375 329.414062 239.214844 328.644531 240.546875 327.84375 C 241.882812 327.042969 243.203125 326.210938 244.5 325.351562 C 245.796875 324.492188 247.074219 323.601562 248.335938 322.6875 C 249.59375 321.769531 250.828125 320.824219 252.046875 319.847656 C 253.261719 318.875 254.453125 317.875 255.625 316.847656 C 256.796875 315.820312 257.941406 314.769531 259.066406 313.691406 C 260.191406 312.613281 261.289062 311.507812 262.363281 310.378906 C 263.4375 309.253906 264.484375 308.101562 265.503906 306.925781 C 266.527344 305.75 267.523438 304.550781 268.488281 303.332031 C 269.457031 302.113281 270.398438 300.871094 271.308594 299.609375 C 272.222656 298.347656 273.105469 297.0625 273.960938 295.761719 C 274.8125 294.460938 275.640625 293.140625 276.433594 291.800781 C 277.230469 290.460938 277.992188 289.105469 278.726562 287.730469 C 279.460938 286.359375 280.164062 284.96875 280.835938 283.5625 C 281.507812 282.15625 282.144531 280.738281 282.753906 279.304688 C 283.359375 277.871094 283.9375 276.421875 284.476562 274.964844 C 285.019531 273.503906 285.53125 272.03125 286.003906 270.550781 C 286.480469 269.066406 286.925781 267.574219 287.332031 266.070312 C 287.742188 264.570312 288.117188 263.058594 288.457031 261.539062 C 288.800781 260.019531 289.105469 258.492188 289.378906 256.957031 C 289.648438 255.425781 289.886719 253.886719 290.089844 252.34375 L 300.996094 261.75 C 301.492188 262.183594 301.902344 262.6875 302.226562 263.261719 C 302.554688 263.839844 302.773438 264.449219 302.890625 265.101562 C 303.007812 265.75 303.015625 266.402344 302.910156 267.054688 C 302.804688 267.707031 302.597656 268.324219 302.28125 268.902344 L 281.828125 306.621094 C 281.078125 308.035156 280.515625 309.515625 280.132812 311.070312 C 279.753906 312.625 279.566406 314.199219 279.578125 315.800781 C 279.589844 317.398438 279.796875 318.972656 280.195312 320.519531 C 280.597656 322.066406 281.183594 323.542969 281.953125 324.945312 L 307.113281 370.15625 C 307.324219 370.539062 307.574219 370.894531 307.855469 371.226562 C 308.140625 371.558594 308.453125 371.859375 308.796875 372.132812 C 309.136719 372.402344 309.503906 372.636719 309.894531 372.835938 C 310.28125 373.035156 310.6875 373.195312 311.105469 373.3125 C 311.527344 373.433594 311.953125 373.511719 312.390625 373.546875 C 312.824219 373.582031 313.257812 373.574219 313.691406 373.523438 C 314.125 373.472656 314.550781 373.378906 314.96875 373.246094 C 315.382812 373.113281 315.78125 372.9375 316.164062 372.726562 C 316.542969 372.515625 316.902344 372.265625 317.234375 371.984375 C 317.566406 371.703125 317.871094 371.390625 318.140625 371.046875 C 318.414062 370.707031 318.648438 370.339844 318.847656 369.953125 C 319.046875 369.5625 319.207031 369.160156 319.328125 368.738281 C 319.449219 368.320312 319.527344 367.890625 319.5625 367.457031 C 319.597656 367.019531 319.589844 366.585938 319.542969 366.152344 C 319.492188 365.71875 319.402344 365.292969 319.265625 364.878906 C 319.132812 364.460938 318.960938 364.0625 318.75 363.679688 L 293.582031 318.457031 C 293.113281 317.597656 292.878906 316.675781 292.871094 315.695312 C 292.867188 314.714844 293.097656 313.789062 293.558594 312.925781 L 313.984375 275.25 C 314.496094 274.296875 314.925781 273.308594 315.273438 272.28125 C 315.617188 271.257812 315.875 270.210938 316.042969 269.140625 C 316.214844 268.074219 316.292969 267 316.277344 265.917969 C 316.265625 264.835938 316.164062 263.761719 315.96875 262.699219 C 315.773438 261.632812 315.492188 260.59375 315.121094 259.574219 C 314.753906 258.558594 314.300781 257.582031 313.765625 256.640625 C 313.230469 255.699219 312.617188 254.8125 311.933594 253.976562 C 311.246094 253.136719 310.496094 252.363281 309.679688 251.65625 L 291.09375 235.617188 L 291.09375 207.304688 L 315.699219 207.304688 C 317.132812 207.304688 318.386719 207.769531 319.472656 208.703125 L 353.039062 237.347656 C 353.371094 237.632812 353.730469 237.878906 354.109375 238.089844 C 354.492188 238.300781 354.890625 238.476562 355.304688 238.609375 C 355.71875 238.742188 356.144531 238.835938 356.578125 238.886719 C 357.011719 238.9375 357.445312 238.945312 357.882812 238.910156 C 358.316406 238.875 358.742188 238.796875 359.164062 238.675781 C 359.582031 238.558594 359.988281 238.398438 360.375 238.203125 C 360.765625 238.003906 361.128906 237.769531 361.472656 237.5 C 361.816406 237.226562 362.128906 236.925781 362.410156 236.59375 C 362.695312 236.261719 362.941406 235.90625 363.15625 235.527344 C 363.371094 235.144531 363.542969 234.746094 363.679688 234.332031 C 363.8125 233.917969 363.90625 233.492188 363.960938 233.058594 C 364.011719 232.625 364.019531 232.191406 363.984375 231.757812 C 363.953125 231.320312 363.875 230.894531 363.757812 230.472656 C 363.640625 230.054688 363.484375 229.648438 363.285156 229.261719 C 363.089844 228.871094 362.855469 228.503906 362.585938 228.160156 C 362.316406 227.816406 362.015625 227.503906 361.6875 227.21875 Z M 121.925781 176.257812 C 121.925781 175.191406 121.949219 174.121094 122 173.054688 C 122.054688 171.988281 122.132812 170.921875 122.234375 169.859375 C 122.339844 168.796875 122.46875 167.738281 122.625 166.679688 C 122.78125 165.625 122.964844 164.570312 123.171875 163.523438 C 123.378906 162.476562 123.613281 161.433594 123.871094 160.398438 C 124.128906 159.359375 124.414062 158.332031 124.722656 157.308594 C 125.035156 156.285156 125.367188 155.273438 125.726562 154.265625 C 126.085938 153.261719 126.46875 152.265625 126.878906 151.277344 C 127.285156 150.289062 127.71875 149.3125 128.175781 148.347656 C 128.632812 147.382812 129.109375 146.425781 129.613281 145.484375 C 130.117188 144.542969 130.644531 143.613281 131.191406 142.695312 C 131.742188 141.78125 132.3125 140.878906 132.90625 139.988281 C 133.496094 139.101562 134.113281 138.226562 134.75 137.371094 C 135.382812 136.511719 136.039062 135.667969 136.71875 134.84375 C 137.394531 134.015625 138.09375 133.207031 138.808594 132.417969 C 139.527344 131.625 140.261719 130.851562 141.019531 130.09375 C 141.773438 129.339844 142.546875 128.601562 143.335938 127.886719 C 144.128906 127.167969 144.9375 126.46875 145.761719 125.792969 C 146.589844 125.113281 147.429688 124.457031 148.289062 123.820312 C 149.144531 123.183594 150.019531 122.570312 150.90625 121.976562 C 151.792969 121.382812 152.695312 120.808594 153.613281 120.261719 C 154.527344 119.710938 155.457031 119.183594 156.398438 118.679688 C 157.339844 118.175781 158.296875 117.695312 159.261719 117.238281 C 160.226562 116.78125 161.203125 116.351562 162.191406 115.941406 C 163.175781 115.53125 164.171875 115.148438 165.179688 114.789062 C 166.183594 114.429688 167.199219 114.09375 168.21875 113.78125 C 169.242188 113.472656 170.273438 113.1875 171.308594 112.925781 C 172.34375 112.667969 173.386719 112.433594 174.433594 112.226562 C 175.480469 112.015625 176.535156 111.835938 177.589844 111.675781 C 178.648438 111.519531 179.707031 111.390625 180.769531 111.285156 C 181.832031 111.179688 182.898438 111.101562 183.964844 111.050781 C 185.03125 110.996094 186.097656 110.972656 187.167969 110.96875 C 188.234375 110.972656 189.304688 110.996094 190.371094 111.050781 C 191.4375 111.101562 192.5 111.179688 193.566406 111.285156 C 194.628906 111.390625 195.6875 111.519531 196.746094 111.675781 C 197.800781 111.835938 198.851562 112.015625 199.902344 112.226562 C 200.949219 112.433594 201.992188 112.667969 203.027344 112.925781 C 204.0625 113.1875 205.089844 113.472656 206.113281 113.78125 C 207.136719 114.09375 208.148438 114.429688 209.15625 114.789062 C 210.160156 115.148438 211.15625 115.53125 212.144531 115.941406 C 213.132812 116.351562 214.109375 116.78125 215.074219 117.238281 C 216.039062 117.695312 216.992188 118.175781 217.933594 118.679688 C 218.875 119.183594 219.804688 119.710938 220.722656 120.261719 C 221.636719 120.808594 222.539062 121.382812 223.425781 121.976562 C 224.316406 122.570312 225.1875 123.183594 226.046875 123.820312 C 226.902344 124.457031 227.746094 125.113281 228.570312 125.792969 C 229.398438 126.46875 230.207031 127.167969 230.996094 127.886719 C 231.789062 128.601562 232.5625 129.339844 233.316406 130.09375 C 234.070312 130.851562 234.808594 131.625 235.523438 132.417969 C 236.242188 133.207031 236.9375 134.015625 237.617188 134.84375 C 238.292969 135.667969 238.949219 136.511719 239.585938 137.371094 C 240.222656 138.226562 240.835938 139.101562 241.429688 139.988281 C 242.023438 140.878906 242.59375 141.78125 243.140625 142.695312 C 243.691406 143.613281 244.21875 144.542969 244.71875 145.484375 C 245.222656 146.425781 245.703125 147.382812 246.160156 148.347656 C 246.613281 149.3125 247.046875 150.289062 247.457031 151.277344 C 247.863281 152.265625 248.246094 153.261719 248.605469 154.265625 C 248.964844 155.273438 249.300781 156.285156 249.609375 157.308594 C 249.917969 158.332031 250.203125 159.359375 250.464844 160.398438 C 250.722656 161.433594 250.957031 162.476562 251.164062 163.523438 C 251.371094 164.570312 251.554688 165.625 251.707031 166.679688 C 251.863281 167.738281 251.996094 168.796875 252.097656 169.859375 C 252.203125 170.921875 252.28125 171.988281 252.332031 173.054688 C 252.382812 174.121094 252.410156 175.191406 252.410156 176.257812 L 252.410156 182.757812 C 252.410156 183.140625 252.371094 183.515625 252.296875 183.890625 C 252.222656 184.261719 252.113281 184.625 251.964844 184.976562 C 251.820312 185.328125 251.640625 185.664062 251.429688 185.976562 C 251.21875 186.292969 250.976562 186.585938 250.707031 186.855469 C 250.4375 187.125 250.144531 187.367188 249.828125 187.578125 C 249.511719 187.789062 249.179688 187.96875 248.828125 188.113281 C 248.476562 188.257812 248.113281 188.367188 247.742188 188.441406 C 247.367188 188.515625 246.992188 188.554688 246.609375 188.554688 L 127.722656 188.554688 C 127.34375 188.554688 126.96875 188.515625 126.59375 188.441406 C 126.21875 188.367188 125.859375 188.257812 125.507812 188.113281 C 125.15625 187.96875 124.820312 187.789062 124.503906 187.578125 C 124.1875 187.367188 123.894531 187.125 123.625 186.855469 C 123.355469 186.585938 123.117188 186.292969 122.90625 185.976562 C 122.695312 185.664062 122.515625 185.328125 122.367188 184.976562 C 122.222656 184.625 122.113281 184.261719 122.039062 183.890625 C 121.964844 183.515625 121.925781 183.140625 121.925781 182.757812 Z M 265.683594 90.300781 L 265.257812 14.074219 C 266.078125 14.070312 266.894531 14.148438 267.703125 14.304688 C 268.507812 14.464844 269.292969 14.699219 270.054688 15.015625 C 270.816406 15.328125 271.539062 15.714844 272.222656 16.171875 C 272.90625 16.625 273.539062 17.144531 274.121094 17.726562 C 274.703125 18.308594 275.222656 18.941406 275.679688 19.628906 C 276.136719 20.3125 276.523438 21.035156 276.835938 21.796875 C 277.148438 22.558594 277.386719 23.339844 277.542969 24.148438 C 277.703125 24.957031 277.78125 25.769531 277.777344 26.59375 L 277.777344 95.78125 C 277.777344 96.769531 277.726562 97.753906 277.628906 98.738281 C 277.53125 99.722656 277.386719 100.699219 277.195312 101.667969 C 277.003906 102.636719 276.765625 103.597656 276.484375 104.542969 C 276.199219 105.488281 275.871094 106.421875 275.496094 107.335938 C 275.121094 108.25 274.703125 109.144531 274.246094 110.019531 C 273.785156 110.894531 273.28125 111.746094 272.738281 112.570312 C 272.199219 113.398438 271.617188 114.195312 270.996094 114.964844 C 270.378906 115.734375 269.722656 116.472656 269.03125 117.179688 C 268.339844 117.886719 267.617188 118.558594 266.859375 119.195312 C 266.105469 119.832031 265.320312 120.433594 264.507812 120.992188 C 263.691406 121.554688 262.855469 122.074219 261.988281 122.554688 C 261.125 123.035156 260.242188 123.472656 259.335938 123.867188 C 258.429688 124.261719 257.503906 124.613281 256.566406 124.917969 C 255.625 125.222656 254.671875 125.484375 253.707031 125.695312 C 252.742188 125.910156 251.769531 126.078125 250.789062 126.195312 C 249.808594 126.316406 248.824219 126.386719 247.835938 126.414062 C 246.164062 124.382812 244.394531 122.4375 242.523438 120.585938 C 244.175781 120.132812 245.773438 119.550781 247.328125 118.835938 C 248.882812 118.121094 250.367188 117.285156 251.785156 116.332031 C 253.203125 115.375 254.535156 114.3125 255.777344 113.140625 C 257.023438 111.964844 258.164062 110.699219 259.203125 109.34375 C 260.242188 107.984375 261.164062 106.550781 261.96875 105.042969 C 262.773438 103.535156 263.453125 101.972656 264.003906 100.355469 C 264.554688 98.734375 264.972656 97.082031 265.253906 95.394531 C 265.535156 93.710938 265.679688 92.011719 265.683594 90.300781 Z M 96.558594 95.78125 L 96.558594 26.59375 C 96.550781 24.921875 96.867188 23.3125 97.507812 21.765625 C 98.152344 20.21875 99.066406 18.859375 100.253906 17.679688 C 101.390625 16.578125 102.667969 15.679688 104.09375 14.988281 C 105.519531 14.296875 107.015625 13.851562 108.585938 13.644531 L 108.585938 90.300781 C 108.589844 92.015625 108.734375 93.714844 109.015625 95.402344 C 109.300781 97.089844 109.71875 98.746094 110.269531 100.367188 C 110.820312 101.984375 111.5 103.550781 112.308594 105.0625 C 113.117188 106.570312 114.039062 108.003906 115.082031 109.363281 C 116.121094 110.722656 117.265625 111.988281 118.511719 113.160156 C 119.761719 114.332031 121.09375 115.398438 122.515625 116.351562 C 123.9375 117.308594 125.425781 118.140625 126.980469 118.855469 C 128.535156 119.566406 130.140625 120.148438 131.792969 120.601562 C 129.933594 122.449219 128.171875 124.386719 126.5 126.410156 C 125.511719 126.386719 124.527344 126.316406 123.546875 126.195312 C 122.566406 126.078125 121.589844 125.910156 120.625 125.695312 C 119.660156 125.484375 118.707031 125.222656 117.769531 124.917969 C 116.828125 124.613281 115.90625 124.261719 115 123.867188 C 114.09375 123.472656 113.207031 123.035156 112.34375 122.554688 C 111.480469 122.074219 110.640625 121.554688 109.828125 120.992188 C 109.015625 120.433594 108.230469 119.832031 107.472656 119.195312 C 106.71875 118.558594 105.996094 117.886719 105.304688 117.179688 C 104.613281 116.472656 103.957031 115.734375 103.335938 114.964844 C 102.71875 114.195312 102.136719 113.398438 101.59375 112.570312 C 101.050781 111.746094 100.550781 110.894531 100.089844 110.019531 C 99.628906 109.144531 99.210938 108.25 98.839844 107.335938 C 98.464844 106.421875 98.136719 105.488281 97.851562 104.542969 C 97.566406 103.597656 97.328125 102.636719 97.136719 101.667969 C 96.945312 100.699219 96.800781 99.722656 96.707031 98.738281 C 96.609375 97.753906 96.558594 96.769531 96.554688 95.78125 Z M 277.777344 238.699219 C 277.777344 240.179688 277.742188 241.664062 277.667969 243.144531 C 277.597656 244.625 277.488281 246.101562 277.34375 247.578125 C 277.195312 249.054688 277.015625 250.527344 276.796875 251.992188 C 276.578125 253.460938 276.328125 254.921875 276.035156 256.375 C 275.746094 257.828125 275.421875 259.277344 275.0625 260.714844 C 274.703125 262.152344 274.308594 263.582031 273.875 265 C 273.445312 266.417969 272.980469 267.828125 272.480469 269.222656 C 271.980469 270.621094 271.449219 272.003906 270.878906 273.371094 C 270.3125 274.742188 269.710938 276.097656 269.078125 277.4375 C 268.445312 278.777344 267.777344 280.101562 267.078125 281.410156 C 266.378906 282.71875 265.648438 284.007812 264.886719 285.28125 C 264.125 286.550781 263.332031 287.804688 262.507812 289.039062 C 261.683594 290.269531 260.828125 291.484375 259.945312 292.675781 C 259.0625 293.867188 258.152344 295.035156 257.210938 296.179688 C 256.269531 297.328125 255.300781 298.449219 254.304688 299.546875 C 253.308594 300.648438 252.289062 301.71875 251.238281 302.769531 C 250.191406 303.816406 249.117188 304.839844 248.019531 305.835938 C 246.917969 306.832031 245.796875 307.800781 244.648438 308.742188 C 243.503906 309.679688 242.335938 310.59375 241.144531 311.476562 C 239.953125 312.359375 238.742188 313.214844 237.507812 314.039062 C 236.273438 314.863281 235.023438 315.65625 233.75 316.417969 C 232.480469 317.179688 231.1875 317.910156 229.882812 318.609375 C 228.574219 319.308594 227.25 319.972656 225.910156 320.609375 C 224.566406 321.242188 223.210938 321.84375 221.84375 322.410156 C 220.472656 322.976562 219.089844 323.511719 217.691406 324.011719 C 216.296875 324.511719 214.890625 324.976562 213.46875 325.40625 C 212.050781 325.835938 210.621094 326.230469 209.183594 326.59375 C 207.746094 326.953125 206.300781 327.277344 204.84375 327.566406 C 203.390625 327.855469 201.929688 328.109375 200.460938 328.328125 C 198.996094 328.546875 197.523438 328.726562 196.046875 328.871094 C 194.574219 329.015625 193.09375 329.125 191.613281 329.199219 C 190.132812 329.273438 188.648438 329.308594 187.167969 329.308594 C 185.683594 329.308594 184.203125 329.273438 182.722656 329.199219 C 181.242188 329.125 179.761719 329.015625 178.285156 328.871094 C 176.808594 328.726562 175.339844 328.546875 173.871094 328.328125 C 172.40625 328.109375 170.945312 327.855469 169.488281 327.566406 C 168.035156 327.277344 166.589844 326.953125 165.152344 326.59375 C 163.710938 326.230469 162.285156 325.835938 160.863281 325.40625 C 159.445312 324.976562 158.039062 324.511719 156.640625 324.011719 C 155.246094 323.511719 153.863281 322.976562 152.492188 322.410156 C 151.121094 321.84375 149.765625 321.242188 148.425781 320.609375 C 147.085938 319.972656 145.761719 319.308594 144.453125 318.609375 C 143.144531 317.910156 141.855469 317.179688 140.585938 316.417969 C 139.3125 315.65625 138.058594 314.863281 136.828125 314.039062 C 135.59375 313.214844 134.382812 312.359375 133.191406 311.476562 C 132 310.59375 130.832031 309.679688 129.683594 308.742188 C 128.539062 307.800781 127.414062 306.832031 126.316406 305.835938 C 125.21875 304.839844 124.144531 303.816406 123.097656 302.769531 C 122.046875 301.71875 121.023438 300.648438 120.03125 299.546875 C 119.035156 298.449219 118.066406 297.328125 117.125 296.179688 C 116.183594 295.035156 115.273438 293.867188 114.386719 292.675781 C 113.503906 291.484375 112.652344 290.269531 111.828125 289.039062 C 111.003906 287.804688 110.210938 286.550781 109.449219 285.28125 C 108.6875 284.007812 107.953125 282.71875 107.257812 281.410156 C 106.558594 280.101562 105.890625 278.777344 105.257812 277.4375 C 104.621094 276.097656 104.023438 274.742188 103.453125 273.371094 C 102.886719 272.003906 102.351562 270.621094 101.855469 269.222656 C 101.355469 267.828125 100.890625 266.417969 100.457031 265 C 100.027344 263.582031 99.632812 262.152344 99.273438 260.714844 C 98.910156 259.277344 98.585938 257.828125 98.296875 256.375 C 98.007812 254.921875 97.753906 253.460938 97.539062 251.992188 C 97.320312 250.527344 97.136719 249.054688 96.992188 247.578125 C 96.847656 246.101562 96.738281 244.625 96.664062 243.144531 C 96.59375 241.664062 96.558594 240.179688 96.558594 238.699219 L 96.558594 177.644531 L 108.609375 177.644531 L 108.609375 182.757812 C 108.609375 183.386719 108.640625 184.007812 108.703125 184.632812 C 108.765625 185.253906 108.859375 185.871094 108.980469 186.488281 C 109.105469 187.101562 109.257812 187.707031 109.4375 188.304688 C 109.621094 188.902344 109.832031 189.492188 110.070312 190.070312 C 110.3125 190.648438 110.578125 191.210938 110.875 191.765625 C 111.167969 192.316406 111.492188 192.851562 111.839844 193.371094 C 112.1875 193.890625 112.558594 194.394531 112.957031 194.878906 C 113.351562 195.363281 113.773438 195.824219 114.214844 196.265625 C 114.65625 196.710938 115.121094 197.128906 115.605469 197.527344 C 116.089844 197.921875 116.589844 198.296875 117.109375 198.644531 C 117.632812 198.992188 118.167969 199.3125 118.71875 199.609375 C 119.269531 199.902344 119.835938 200.171875 120.414062 200.410156 C 120.992188 200.648438 121.578125 200.859375 122.179688 201.042969 C 122.777344 201.226562 123.382812 201.378906 123.996094 201.5 C 124.609375 201.621094 125.230469 201.714844 125.851562 201.777344 C 126.472656 201.839844 127.097656 201.871094 127.722656 201.871094 L 246.609375 201.871094 C 247.234375 201.871094 247.859375 201.839844 248.484375 201.777344 C 249.105469 201.714844 249.722656 201.621094 250.335938 201.5 C 250.949219 201.378906 251.558594 201.226562 252.15625 201.042969 C 252.753906 200.859375 253.34375 200.648438 253.921875 200.410156 C 254.5 200.171875 255.0625 199.902344 255.617188 199.609375 C 256.167969 199.3125 256.703125 198.992188 257.222656 198.644531 C 257.742188 198.296875 258.246094 197.921875 258.730469 197.527344 C 259.214844 197.128906 259.675781 196.710938 260.117188 196.265625 C 260.5625 195.824219 260.980469 195.363281 261.378906 194.878906 C 261.773438 194.394531 262.148438 193.890625 262.496094 193.371094 C 262.84375 192.851562 263.164062 192.316406 263.460938 191.765625 C 263.753906 191.210938 264.023438 190.648438 264.261719 190.070312 C 264.503906 189.492188 264.714844 188.902344 264.894531 188.304688 C 265.078125 187.707031 265.230469 187.101562 265.351562 186.488281 C 265.476562 185.871094 265.566406 185.253906 265.628906 184.632812 C 265.691406 184.007812 265.722656 183.386719 265.722656 182.757812 L 265.722656 177.644531 L 277.777344 177.644531 Z M 277.777344 238.699219 " fill-opacity="1" fill-rule="nonzero"/></g></svg>