<svg xmlns="http://www.w3.org/2000/svg" xmlns:xlink="http://www.w3.org/1999/xlink" width="500"
    zoomAndPan="magnify" viewBox="0 0 375 60" height="80" preserveAspectRatio="xMidYMid meet"
    version="1.0">
    <defs>
        <g />
        <clipPath id="5521df2501">
            <path
                d="M 122.285156 8.964844 L 160.023438 8.964844 L 160.023438 46.703125 L 122.285156 46.703125 Z M 122.285156 8.964844 "
                clip-rule="nonzero" />
        </clipPath>
        <clipPath id="d6b8a9399b">
            <path
                d="M 141.15625 8.964844 C 130.734375 8.964844 122.285156 17.414062 122.285156 27.832031 C 122.285156 38.253906 130.734375 46.703125 141.15625 46.703125 C 151.578125 46.703125 160.023438 38.253906 160.023438 27.832031 C 160.023438 17.414062 151.578125 8.964844 141.15625 8.964844 Z M 141.15625 8.964844 "
                clip-rule="nonzero" />
        </clipPath>
        <clipPath id="979553c145">
            <path d="M 127 10.398438 L 150 10.398438 L 150 25 L 127 25 Z M 127 10.398438 "
                clip-rule="nonzero" />
        </clipPath>
        <clipPath id="fbc1c5d40a">
            <path d="M 124 10.398438 L 154 10.398438 L 154 44 L 124 44 Z M 124 10.398438 "
                clip-rule="nonzero" />
        </clipPath>
        <clipPath id="743ad3b767">
            <path d="M 144 24 L 157.800781 24 L 157.800781 44 L 144 44 Z M 144 24 "
                clip-rule="nonzero" />
        </clipPath>
        <clipPath id="681f25539b">
            <path d="M 128 21 L 153 21 L 153 44.238281 L 128 44.238281 Z M 128 21 "
                clip-rule="nonzero" />
        </clipPath>
    </defs>
    <g fill="#ffffff" fill-opacity="1">
        <g transform="translate(-0.405237, 49.375211)">
            <g>
                <path
                    d="M 5.25 0 C 4.207031 0 3.488281 -0.195312 3.09375 -0.59375 C 2.695312 -0.988281 2.5 -1.707031 2.5 -2.75 L 2.5 -41.640625 C 2.5 -42.679688 2.695312 -43.398438 3.09375 -43.796875 C 3.488281 -44.191406 4.207031 -44.390625 5.25 -44.390625 L 32.515625 -44.390625 C 33.554688 -44.390625 34.273438 -44.191406 34.671875 -43.796875 C 35.066406 -43.398438 35.265625 -42.679688 35.265625 -41.640625 L 35.265625 -34.640625 C 35.265625 -33.597656 35.066406 -32.878906 34.671875 -32.484375 C 34.273438 -32.085938 33.554688 -31.890625 32.515625 -31.890625 L 17 -31.890625 L 17 -28.625 L 29 -28.625 C 30.039062 -28.625 30.757812 -28.425781 31.15625 -28.03125 C 31.5625 -27.632812 31.765625 -26.914062 31.765625 -25.875 L 31.765625 -18.875 C 31.765625 -17.832031 31.5625 -17.113281 31.15625 -16.71875 C 30.757812 -16.320312 30.039062 -16.125 29 -16.125 L 17 -16.125 L 17 -12.5625 L 32.953125 -12.5625 C 33.992188 -12.5625 34.710938 -12.363281 35.109375 -11.96875 C 35.503906 -11.570312 35.703125 -10.851562 35.703125 -9.8125 L 35.703125 -2.75 C 35.703125 -1.707031 35.503906 -0.988281 35.109375 -0.59375 C 34.710938 -0.195312 33.992188 0 32.953125 0 Z M 5.25 0 " />
            </g>
        </g>
    </g>
    <g fill="#ffffff" fill-opacity="1">
        <g transform="translate(36.605945, 49.375211)">
            <g>
                <path
                    d="M 5.25 0 C 4.207031 0 3.488281 -0.195312 3.09375 -0.59375 C 2.695312 -0.988281 2.5 -1.707031 2.5 -2.75 L 2.5 -41.640625 C 2.5 -42.679688 2.695312 -43.398438 3.09375 -43.796875 C 3.488281 -44.191406 4.207031 -44.390625 5.25 -44.390625 L 14.8125 -44.390625 C 15.519531 -44.390625 16.070312 -44.296875 16.46875 -44.109375 C 16.863281 -43.921875 17.207031 -43.597656 17.5 -43.140625 L 25.625 -29.875 C 26.207031 -28.957031 26.664062 -28.1875 27 -27.5625 C 27.332031 -26.9375 27.644531 -26.28125 27.9375 -25.59375 C 28.226562 -24.90625 28.601562 -23.988281 29.0625 -22.84375 C 29.519531 -21.695312 30.144531 -20.144531 30.9375 -18.1875 L 31.515625 -18.1875 C 30.671875 -20.894531 30.007812 -23.0625 29.53125 -24.6875 C 29.050781 -26.3125 28.6875 -27.6875 28.4375 -28.8125 C 28.1875 -29.9375 28.03125 -31.03125 27.96875 -32.09375 C 27.90625 -33.164062 27.875 -34.453125 27.875 -35.953125 L 27.875 -41.640625 C 27.875 -42.679688 28.070312 -43.398438 28.46875 -43.796875 C 28.863281 -44.191406 29.582031 -44.390625 30.625 -44.390625 L 38.640625 -44.390625 C 39.679688 -44.390625 40.398438 -44.191406 40.796875 -43.796875 C 41.191406 -43.398438 41.390625 -42.679688 41.390625 -41.640625 L 41.390625 -2.75 C 41.390625 -1.707031 41.191406 -0.988281 40.796875 -0.59375 C 40.398438 -0.195312 39.679688 0 38.640625 0 L 29.6875 0 C 29.019531 0 28.488281 -0.101562 28.09375 -0.3125 C 27.695312 -0.519531 27.332031 -0.851562 27 -1.3125 L 19.9375 -12.5625 C 19.3125 -13.5625 18.800781 -14.414062 18.40625 -15.125 C 18.007812 -15.832031 17.625 -16.625 17.25 -17.5 C 16.875 -18.375 16.445312 -19.507812 15.96875 -20.90625 C 15.488281 -22.300781 14.894531 -24.164062 14.1875 -26.5 L 13.6875 -26.5 C 14.226562 -24 14.65625 -21.976562 14.96875 -20.4375 C 15.28125 -18.894531 15.507812 -17.550781 15.65625 -16.40625 C 15.800781 -15.257812 15.894531 -14.082031 15.9375 -12.875 C 15.976562 -11.664062 16 -10.144531 16 -8.3125 L 16 -2.75 C 16 -1.707031 15.800781 -0.988281 15.40625 -0.59375 C 15.007812 -0.195312 14.289062 0 13.25 0 Z M 5.25 0 " />
            </g>
        </g>
    </g>
    <g fill="#ffffff" fill-opacity="1">
        <g transform="translate(80.494207, 49.375211)">
            <g>
                <path
                    d="M 14.9375 0 C 13.894531 0 13.175781 -0.195312 12.78125 -0.59375 C 12.382812 -0.988281 12.1875 -1.707031 12.1875 -2.75 L 12.1875 -31.890625 L 3.375 -31.890625 C 2.332031 -31.890625 1.613281 -32.085938 1.21875 -32.484375 C 0.820312 -32.878906 0.625 -33.597656 0.625 -34.640625 L 0.625 -41.640625 C 0.625 -42.679688 0.820312 -43.398438 1.21875 -43.796875 C 1.613281 -44.191406 2.332031 -44.390625 3.375 -44.390625 L 35.515625 -44.390625 C 36.554688 -44.390625 37.273438 -44.191406 37.671875 -43.796875 C 38.066406 -43.398438 38.265625 -42.679688 38.265625 -41.640625 L 38.265625 -34.640625 C 38.265625 -33.597656 38.066406 -32.878906 37.671875 -32.484375 C 37.273438 -32.085938 36.554688 -31.890625 35.515625 -31.890625 L 26.6875 -31.890625 L 26.6875 -2.75 C 26.6875 -1.707031 26.488281 -0.988281 26.09375 -0.59375 C 25.695312 -0.195312 24.976562 0 23.9375 0 Z M 14.9375 0 " />
            </g>
        </g>
    </g>
    <g fill="#ffffff" fill-opacity="1">
        <g transform="translate(119.380957, 49.375211)">
            <g>
                <path
                    d="M 21.5 0.9375 C 15.082031 0.9375 10.15625 -0.6875 6.71875 -3.9375 C 3.28125 -7.1875 1.5625 -11.601562 1.5625 -17.1875 L 1.5625 -27.1875 C 1.5625 -32.78125 3.28125 -37.203125 6.71875 -40.453125 C 10.15625 -43.703125 15.082031 -45.328125 21.5 -45.328125 C 27.925781 -45.328125 32.859375 -43.703125 36.296875 -40.453125 C 39.734375 -37.203125 41.453125 -32.78125 41.453125 -27.1875 L 41.453125 -17.1875 C 41.453125 -11.601562 39.734375 -7.1875 36.296875 -3.9375 C 32.859375 -0.6875 27.925781 0.9375 21.5 0.9375 Z M 21.5 -11.625 C 23.207031 -11.625 24.539062 -12.03125 25.5 -12.84375 C 26.457031 -13.65625 26.9375 -14.832031 26.9375 -16.375 L 26.9375 -28 C 26.9375 -29.582031 26.457031 -30.769531 25.5 -31.5625 C 24.539062 -32.363281 23.207031 -32.765625 21.5 -32.765625 C 19.789062 -32.765625 18.457031 -32.363281 17.5 -31.5625 C 16.539062 -30.769531 16.0625 -29.582031 16.0625 -28 L 16.0625 -16.375 C 16.0625 -14.832031 16.539062 -13.65625 17.5 -12.84375 C 18.457031 -12.03125 19.789062 -11.625 21.5 -11.625 Z M 21.5 -11.625 " />
            </g>
        </g>
    </g>
    <g fill="#ffffff" fill-opacity="1">
        <g transform="translate(162.393957, 49.375211)">
            <g>
                <path
                    d="M 5.25 0 C 4.207031 0 3.488281 -0.1875 3.09375 -0.5625 C 2.695312 -0.9375 2.5 -1.625 2.5 -2.625 L 2.5 -41.765625 C 2.5 -42.765625 2.695312 -43.453125 3.09375 -43.828125 C 3.488281 -44.203125 4.207031 -44.390625 5.25 -44.390625 L 12.875 -44.390625 C 14 -44.390625 14.832031 -44.273438 15.375 -44.046875 C 15.914062 -43.816406 16.375 -43.285156 16.75 -42.453125 L 25.875 -23.0625 L 35.078125 -42.390625 C 35.492188 -43.265625 35.941406 -43.816406 36.421875 -44.046875 C 36.898438 -44.273438 37.660156 -44.390625 38.703125 -44.390625 L 46.765625 -44.390625 C 47.804688 -44.390625 48.523438 -44.203125 48.921875 -43.828125 C 49.316406 -43.453125 49.515625 -42.765625 49.515625 -41.765625 L 49.515625 -2.625 C 49.515625 -1.625 49.316406 -0.9375 48.921875 -0.5625 C 48.523438 -0.1875 47.804688 0 46.765625 0 L 37.890625 0 C 36.847656 0 36.128906 -0.1875 35.734375 -0.5625 C 35.335938 -0.9375 35.140625 -1.625 35.140625 -2.625 L 35.140625 -6.5 C 35.140625 -8 35.203125 -9.519531 35.328125 -11.0625 C 35.453125 -12.601562 35.753906 -14.476562 36.234375 -16.6875 C 36.710938 -18.894531 37.472656 -21.726562 38.515625 -25.1875 L 37.765625 -25.1875 C 37.765625 -25.1875 37.617188 -24.800781 37.328125 -24.03125 C 37.035156 -23.257812 36.691406 -22.34375 36.296875 -21.28125 C 35.898438 -20.21875 35.515625 -19.195312 35.140625 -18.21875 C 34.765625 -17.238281 34.472656 -16.519531 34.265625 -16.0625 L 31.578125 -9.875 C 31.285156 -9.25 30.925781 -8.789062 30.5 -8.5 C 30.082031 -8.207031 29.414062 -8.0625 28.5 -8.0625 L 23 -8.0625 C 22.082031 -8.0625 21.414062 -8.195312 21 -8.46875 C 20.582031 -8.738281 20.207031 -9.207031 19.875 -9.875 L 17.0625 -16.0625 C 16.894531 -16.4375 16.632812 -17.101562 16.28125 -18.0625 C 15.925781 -19.019531 15.5625 -20.050781 15.1875 -21.15625 C 14.8125 -22.257812 14.5 -23.207031 14.25 -24 C 14 -24.789062 13.875 -25.1875 13.875 -25.1875 L 13.125 -25.1875 C 13.875 -22.3125 14.46875 -19.925781 14.90625 -18.03125 C 15.34375 -16.132812 15.65625 -14.53125 15.84375 -13.21875 C 16.03125 -11.90625 16.15625 -10.726562 16.21875 -9.6875 C 16.28125 -8.644531 16.3125 -7.5625 16.3125 -6.4375 L 16.3125 -2.625 C 16.3125 -1.625 16.113281 -0.9375 15.71875 -0.5625 C 15.320312 -0.1875 14.601562 0 13.5625 0 Z M 5.25 0 " />
            </g>
        </g>
    </g>
    <g fill="#ffffff" fill-opacity="1">
        <g transform="translate(214.409673, 49.375211)">
            <g>
                <path
                    d="M 21.5 0.9375 C 15.082031 0.9375 10.15625 -0.6875 6.71875 -3.9375 C 3.28125 -7.1875 1.5625 -11.601562 1.5625 -17.1875 L 1.5625 -27.1875 C 1.5625 -32.78125 3.28125 -37.203125 6.71875 -40.453125 C 10.15625 -43.703125 15.082031 -45.328125 21.5 -45.328125 C 27.925781 -45.328125 32.859375 -43.703125 36.296875 -40.453125 C 39.734375 -37.203125 41.453125 -32.78125 41.453125 -27.1875 L 41.453125 -17.1875 C 41.453125 -11.601562 39.734375 -7.1875 36.296875 -3.9375 C 32.859375 -0.6875 27.925781 0.9375 21.5 0.9375 Z M 21.5 -11.625 C 23.207031 -11.625 24.539062 -12.03125 25.5 -12.84375 C 26.457031 -13.65625 26.9375 -14.832031 26.9375 -16.375 L 26.9375 -28 C 26.9375 -29.582031 26.457031 -30.769531 25.5 -31.5625 C 24.539062 -32.363281 23.207031 -32.765625 21.5 -32.765625 C 19.789062 -32.765625 18.457031 -32.363281 17.5 -31.5625 C 16.539062 -30.769531 16.0625 -29.582031 16.0625 -28 L 16.0625 -16.375 C 16.0625 -14.832031 16.539062 -13.65625 17.5 -12.84375 C 18.457031 -12.03125 19.789062 -11.625 21.5 -11.625 Z M 21.5 -11.625 " />
            </g>
        </g>
    </g>
    <g fill="#ffffff" fill-opacity="1">
        <g transform="translate(257.42402, 49.375211)">
            <g>
                <path
                    d="M 6.875 0 C 6.082031 0 5.6875 -0.414062 5.6875 -1.25 L 5.6875 -43.140625 C 5.6875 -43.972656 6.082031 -44.390625 6.875 -44.390625 L 9 -44.390625 C 9.789062 -44.390625 10.1875 -43.972656 10.1875 -43.140625 L 10.1875 -24.5625 L 17.5625 -24.5625 L 31.578125 -43.328125 C 31.910156 -43.785156 32.234375 -44.078125 32.546875 -44.203125 C 32.859375 -44.328125 33.367188 -44.390625 34.078125 -44.390625 L 36.328125 -44.390625 C 36.785156 -44.390625 37.054688 -44.273438 37.140625 -44.046875 C 37.222656 -43.816406 37.160156 -43.535156 36.953125 -43.203125 L 22.125 -23.6875 C 23.914062 -23.1875 25.394531 -22.351562 26.5625 -21.1875 C 27.726562 -20.019531 28.769531 -18.519531 29.6875 -16.6875 L 37.640625 -1.25 C 37.847656 -0.914062 37.898438 -0.625 37.796875 -0.375 C 37.691406 -0.125 37.410156 0 36.953125 0 L 34.953125 0 C 34.160156 0 33.609375 -0.0703125 33.296875 -0.21875 C 32.984375 -0.363281 32.722656 -0.644531 32.515625 -1.0625 L 25.5 -15 C 24.539062 -16.957031 23.425781 -18.351562 22.15625 -19.1875 C 20.882812 -20.019531 19.019531 -20.4375 16.5625 -20.4375 L 10.1875 -20.4375 L 10.1875 -1.25 C 10.1875 -0.414062 9.789062 0 9 0 Z M 6.875 0 " />
            </g>
        </g>
    </g>
    <g fill="#ffffff" fill-opacity="1">
        <g transform="translate(297.123516, 49.375211)">
            <g>
                <path
                    d="M 6.875 0 C 6.082031 0 5.6875 -0.414062 5.6875 -1.25 L 5.6875 -43.140625 C 5.6875 -43.972656 6.082031 -44.390625 6.875 -44.390625 L 32.265625 -44.390625 C 33.054688 -44.390625 33.453125 -43.972656 33.453125 -43.140625 L 33.453125 -41.390625 C 33.453125 -40.929688 33.367188 -40.617188 33.203125 -40.453125 C 33.035156 -40.285156 32.722656 -40.203125 32.265625 -40.203125 L 10.1875 -40.203125 L 10.1875 -24.625 L 29.4375 -24.625 C 30.226562 -24.625 30.625 -24.207031 30.625 -23.375 L 30.625 -21.625 C 30.625 -20.789062 30.226562 -20.375 29.4375 -20.375 L 10.1875 -20.375 L 10.1875 -4.1875 L 33.015625 -4.1875 C 33.472656 -4.1875 33.796875 -4.101562 33.984375 -3.9375 C 34.171875 -3.769531 34.265625 -3.457031 34.265625 -3 L 34.265625 -1.25 C 34.265625 -0.414062 33.847656 0 33.015625 0 Z M 6.875 0 " />
            </g>
        </g>
    </g>
    <g fill="#ffffff" fill-opacity="1">
        <g transform="translate(334.572336, 49.375211)">
            <g>
                <path
                    d="M 19.375 0 C 18.539062 0 18.125 -0.414062 18.125 -1.25 L 18.125 -18.0625 L 1.8125 -43.140625 C 1.601562 -43.472656 1.550781 -43.765625 1.65625 -44.015625 C 1.757812 -44.265625 2.019531 -44.390625 2.4375 -44.390625 L 5 -44.390625 C 5.707031 -44.390625 6.207031 -44.335938 6.5 -44.234375 C 6.789062 -44.128906 7.082031 -43.828125 7.375 -43.328125 L 20.4375 -22.6875 L 33.640625 -43.328125 C 33.929688 -43.828125 34.222656 -44.128906 34.515625 -44.234375 C 34.804688 -44.335938 35.304688 -44.390625 36.015625 -44.390625 L 38.390625 -44.390625 C 38.847656 -44.390625 39.117188 -44.265625 39.203125 -44.015625 C 39.285156 -43.765625 39.222656 -43.472656 39.015625 -43.140625 L 22.625 -18 L 22.625 -1.25 C 22.625 -0.414062 22.226562 0 21.4375 0 Z M 19.375 0 " />
            </g>
        </g>
    </g>
    <g clip-path="url(#5521df2501)">
        <g clip-path="url(#d6b8a9399b)">
            <path fill="#ffffff"
                d="M 122.285156 8.964844 L 160.023438 8.964844 L 160.023438 46.703125 L 122.285156 46.703125 Z M 122.285156 8.964844 "
                fill-opacity="1" fill-rule="nonzero" />
        </g>
    </g>
    <g clip-path="url(#979553c145)">
        <path fill="#000604"
            d="M 133.214844 24.316406 L 133.15625 24.277344 C 133.085938 24.222656 125.832031 18.71875 128.613281 11.605469 C 128.8125 11.09375 129.390625 10.84375 129.902344 11.042969 C 130.417969 11.238281 130.667969 11.820312 130.46875 12.332031 C 128.234375 18.046875 134.285156 22.636719 134.347656 22.683594 C 134.789062 23.011719 134.878906 23.632812 134.550781 24.074219 C 134.234375 24.496094 133.652344 24.597656 133.214844 24.316406 Z M 147.917969 23.902344 L 147.863281 23.863281 C 147.789062 23.808594 140.539062 18.304688 143.316406 11.191406 C 143.519531 10.679688 144.09375 10.429688 144.605469 10.628906 C 145.121094 10.824219 145.371094 11.40625 145.171875 11.917969 C 142.9375 17.632812 148.988281 22.222656 149.050781 22.269531 C 149.492188 22.597656 149.582031 23.21875 149.253906 23.660156 C 148.941406 24.082031 148.355469 24.183594 147.917969 23.902344 Z M 147.917969 23.902344 "
            fill-opacity="1" fill-rule="nonzero" />
    </g>
    <g clip-path="url(#fbc1c5d40a)">
        <path fill="#000604"
            d="M 134.019531 23.902344 L 134.074219 23.863281 C 134.148438 23.808594 141.398438 18.304688 138.621094 11.191406 C 138.421875 10.679688 137.84375 10.429688 137.332031 10.628906 C 136.816406 10.824219 136.566406 11.40625 136.765625 11.917969 C 139 17.632812 132.949219 22.222656 132.886719 22.269531 C 132.445312 22.597656 132.355469 23.21875 132.683594 23.660156 C 132.996094 24.082031 133.582031 24.183594 134.019531 23.902344 Z M 124.917969 31.714844 C 124.777344 31.6875 124.644531 31.628906 124.523438 31.542969 C 124.078125 31.21875 123.980469 30.597656 124.304688 30.152344 C 128.6875 24.140625 136.554688 24.714844 136.890625 24.742188 C 137.4375 24.792969 137.84375 25.265625 137.800781 25.8125 C 137.753906 26.359375 137.277344 26.769531 136.726562 26.726562 C 136.65625 26.71875 129.628906 26.230469 125.910156 31.324219 C 125.675781 31.648438 125.285156 31.785156 124.917969 31.714844 Z M 128.683594 43.632812 C 128.5625 43.703125 128.421875 43.746094 128.273438 43.757812 C 127.722656 43.800781 127.246094 43.394531 127.203125 42.84375 C 126.613281 35.429688 132.957031 30.738281 133.226562 30.542969 C 133.671875 30.226562 134.292969 30.320312 134.613281 30.765625 C 134.9375 31.207031 134.839844 31.828125 134.398438 32.15625 C 134.339844 32.195312 128.683594 36.402344 129.1875 42.6875 C 129.214844 43.085938 129.007812 43.449219 128.683594 43.632812 Z M 148.695312 24.316406 L 148.75 24.277344 C 148.824219 24.222656 156.078125 18.71875 153.296875 11.605469 C 153.097656 11.09375 152.519531 10.839844 152.007812 11.039062 C 151.492188 11.238281 151.242188 11.816406 151.441406 12.328125 C 153.675781 18.042969 147.625 22.636719 147.5625 22.679688 C 147.121094 23.007812 147.03125 23.632812 147.359375 24.074219 C 147.675781 24.496094 148.257812 24.597656 148.695312 24.316406 Z M 148.695312 24.316406 "
            fill-opacity="1" fill-rule="nonzero" />
    </g>
    <g clip-path="url(#743ad3b767)">
        <path fill="#000604"
            d="M 156.992188 31.714844 C 157.132812 31.6875 157.265625 31.628906 157.386719 31.542969 C 157.832031 31.21875 157.929688 30.597656 157.605469 30.152344 C 153.222656 24.140625 145.355469 24.714844 145.019531 24.742188 C 144.472656 24.792969 144.066406 25.265625 144.109375 25.8125 C 144.15625 26.359375 144.632812 26.769531 145.179688 26.726562 C 145.253906 26.71875 152.28125 26.230469 155.996094 31.324219 C 156.234375 31.648438 156.625 31.785156 156.992188 31.714844 Z M 153.226562 43.632812 C 153.347656 43.703125 153.488281 43.746094 153.636719 43.757812 C 154.1875 43.800781 154.664062 43.394531 154.707031 42.84375 C 155.296875 35.429688 148.953125 30.738281 148.683594 30.542969 C 148.238281 30.226562 147.617188 30.320312 147.296875 30.765625 C 146.972656 31.207031 147.070312 31.828125 147.511719 32.15625 C 147.570312 32.195312 153.226562 36.402344 152.722656 42.6875 C 152.691406 43.085938 152.898438 43.449219 153.226562 43.632812 Z M 153.226562 43.632812 "
            fill-opacity="1" fill-rule="nonzero" />
    </g>
    <path fill="#000604"
        d="M 147.1875 17.179688 C 147.121094 14.566406 144.96875 12.4375 140.964844 12.4375 C 137.046875 12.4375 134.808594 14.566406 134.746094 17.179688 C 132.050781 18.957031 130.289062 22.050781 130.289062 26.367188 C 130.289062 33.492188 135.070312 43.207031 140.964844 43.207031 C 146.863281 43.207031 151.644531 33.492188 151.644531 26.367188 C 151.644531 22.050781 149.882812 18.957031 147.1875 17.179688 Z M 147.1875 17.179688 "
        fill-opacity="1" fill-rule="nonzero" />
    <path fill="#ffffff"
        d="M 131.988281 20.003906 C 130.921875 21.683594 130.289062 23.808594 130.289062 26.367188 C 130.289062 33.492188 135.070312 43.207031 140.964844 43.207031 C 146.863281 43.207031 151.644531 33.492188 151.644531 26.367188 C 151.644531 23.804688 151.011719 21.679688 149.941406 20 C 147.546875 19.605469 144.5625 19.402344 140.976562 19.402344 C 137.378906 19.402344 134.386719 19.609375 131.988281 20.003906 Z M 131.988281 20.003906 "
        fill-opacity="1" fill-rule="nonzero" />
    <path fill="#000604"
        d="M 134.746094 17.179688 C 134.746094 17.179688 137.648438 16.417969 141.097656 16.417969 C 144.546875 16.417969 147.1875 17.179688 147.1875 17.179688 C 147.1875 17.179688 147.292969 12.4375 140.964844 12.4375 C 134.640625 12.4375 134.746094 17.179688 134.746094 17.179688 Z M 134.746094 17.179688 "
        fill-opacity="1" fill-rule="nonzero" />
    <g clip-path="url(#681f25539b)">
        <path fill="#000604"
            d="M 139.1875 44.238281 C 133.460938 43.648438 128.953125 37.378906 128.953125 29.730469 C 128.953125 22.082031 133.332031 21.765625 137.984375 21.765625 C 139.410156 21.765625 140.078125 22.34375 140.078125 24.671875 L 140.078125 43.121094 C 140.074219 44.285156 139.480469 44.269531 139.1875 44.238281 Z M 142.570312 44.238281 C 148.296875 43.648438 152.800781 37.378906 152.800781 29.730469 C 152.800781 22.082031 148.425781 21.765625 143.773438 21.765625 C 142.34375 21.765625 141.679688 22.34375 141.679688 24.671875 L 141.679688 43.121094 C 141.679688 44.285156 142.273438 44.269531 142.570312 44.238281 Z M 142.570312 44.238281 "
            fill-opacity="1" fill-rule="nonzero" />
    </g>
    <path fill="#ffffff"
        d="M 137.90625 42.667969 C 137.578125 42.667969 137.257812 42.507812 137.066406 42.207031 C 131.1875 33.003906 133.898438 22.476562 134.226562 21.304688 C 134.375 20.777344 134.921875 20.464844 135.453125 20.617188 C 135.984375 20.765625 136.292969 21.316406 136.144531 21.84375 C 135.839844 22.925781 133.332031 32.660156 138.742188 41.136719 C 139.039062 41.601562 138.902344 42.214844 138.4375 42.511719 C 138.277344 42.617188 138.089844 42.667969 137.90625 42.667969 Z M 143.859375 42.667969 C 143.675781 42.667969 143.492188 42.617188 143.324219 42.511719 C 142.863281 42.214844 142.726562 41.601562 143.023438 41.136719 C 147.417969 34.253906 146.726562 25.769531 145.621094 21.84375 C 145.472656 21.3125 145.78125 20.765625 146.308594 20.617188 C 146.839844 20.472656 147.386719 20.777344 147.535156 21.304688 C 147.863281 22.476562 150.578125 33 144.699219 42.207031 C 144.511719 42.507812 144.1875 42.667969 143.859375 42.667969 Z M 143.859375 42.667969 "
        fill-opacity="1" fill-rule="nonzero" />
    <path fill="#ffffff"
        d="M 133.015625 20.230469 L 148.9375 20.230469 L 148.9375 23.214844 L 133.015625 23.214844 Z M 133.015625 20.230469 "
        fill-opacity="1" fill-rule="nonzero" />
    <path fill="#000604"
        d="M 129.460938 25.890625 C 129.902344 24.515625 130.890625 23.0625 132.054688 22.230469 C 133.128906 21.464844 134.15625 21.496094 133.847656 22.894531 C 132.894531 27.242188 128.847656 27.785156 129.460938 25.890625 Z M 135.886719 22.984375 C 136.472656 21.265625 139.457031 21.125 139.902344 23.050781 C 140.34375 24.980469 138.878906 25.113281 137.683594 25.070312 C 136.488281 25.023438 135.402344 24.425781 135.886719 22.984375 Z M 152.265625 25.890625 C 151.824219 24.515625 150.835938 23.0625 149.671875 22.230469 C 148.597656 21.464844 147.570312 21.496094 147.878906 22.894531 C 148.832031 27.242188 152.878906 27.785156 152.265625 25.890625 Z M 145.835938 22.984375 C 145.253906 21.265625 142.269531 21.125 141.824219 23.050781 C 141.382812 24.980469 142.84375 25.113281 144.042969 25.070312 C 145.238281 25.023438 146.324219 24.425781 145.835938 22.984375 Z M 145.835938 22.984375 "
        fill-opacity="1" fill-rule="nonzero" />
</svg>