<svg xmlns="http://www.w3.org/2000/svg" xmlns:xlink="http://www.w3.org/1999/xlink" width="500"
    zoomAndPan="magnify" viewBox="0 0 375 374.999991" height="500"
    preserveAspectRatio="xMidYMid meet" version="1.0">
    <metadata>
        <ContainsAiGeneratedContent>Yes</ContainsAiGeneratedContent>
    </metadata>
    <defs>
        <clipPath id="9f4b95cbe8">
            <path
                d="M 187.5 0 C 83.945312 0 0 83.945312 0 187.5 C 0 291.054688 83.945312 375 187.5 375 C 291.054688 375 375 291.054688 375 187.5 C 375 83.945312 291.054688 0 187.5 0 Z M 187.5 0 "
                clip-rule="nonzero" />
        </clipPath>
    </defs>
    <g clip-path="url(#9f4b95cbe8)">
        <rect x="-37.5" width="450" fill="#ffffff" y="-37.499999" height="449.999989"
            fill-opacity="1" />
    </g>
    <path fill="#000604"
        d="M 124.148438 162.441406 L 123.679688 162.125 C 123.078125 161.675781 63.550781 116.476562 86.375 58.09375 C 88.015625 53.886719 92.753906 51.820312 96.953125 53.460938 C 101.183594 55.085938 103.226562 59.839844 101.59375 64.039062 C 83.253906 110.953125 132.9375 148.644531 133.441406 149.019531 C 137.0625 151.71875 137.8125 156.832031 135.117188 160.457031 C 132.527344 163.914062 127.726562 164.746094 124.148438 162.441406 Z M 244.859375 159.042969 L 244.394531 158.726562 C 243.789062 158.277344 184.261719 113.078125 207.085938 54.695312 C 208.726562 50.488281 213.464844 48.421875 217.664062 50.0625 C 221.894531 51.6875 223.9375 56.441406 222.304688 60.640625 C 203.964844 107.554688 253.648438 145.246094 254.15625 145.621094 C 257.773438 148.320312 258.527344 153.433594 255.832031 157.058594 C 253.25 160.515625 248.4375 161.347656 244.859375 159.042969 Z M 244.859375 159.042969 "
        fill-opacity="1" fill-rule="nonzero" />
    <path fill="#000604"
        d="M 130.746094 159.042969 L 131.214844 158.726562 C 131.816406 158.277344 191.34375 113.078125 168.519531 54.695312 C 166.878906 50.488281 162.140625 48.421875 157.941406 50.0625 C 153.710938 51.6875 151.667969 56.441406 153.300781 60.640625 C 171.640625 107.554688 121.957031 145.246094 121.449219 145.621094 C 117.832031 148.320312 117.082031 153.433594 119.777344 157.058594 C 122.359375 160.515625 127.167969 161.347656 130.746094 159.042969 Z M 56.027344 223.171875 C 54.890625 222.949219 53.78125 222.476562 52.78125 221.757812 C 49.140625 219.09375 48.339844 213.988281 50.992188 210.335938 C 86.96875 161.003906 151.578125 165.710938 154.316406 165.929688 C 158.800781 166.339844 162.140625 170.234375 161.78125 174.730469 C 161.421875 179.222656 157.484375 182.570312 152.992188 182.21875 C 152.410156 182.171875 94.707031 178.136719 64.195312 219.960938 C 62.265625 222.617188 59.039062 223.757812 56.027344 223.171875 Z M 86.953125 321.011719 C 85.941406 321.582031 84.796875 321.949219 83.570312 322.046875 C 79.070312 322.398438 75.140625 319.050781 74.78125 314.546875 C 69.945312 253.683594 122.023438 215.164062 124.246094 213.554688 C 127.914062 210.949219 132.984375 211.726562 135.640625 215.371094 C 138.296875 219.011719 137.488281 224.117188 133.851562 226.78125 C 133.378906 227.125 86.960938 261.65625 91.070312 313.257812 C 91.324219 316.535156 89.625 319.5 86.953125 321.011719 Z M 251.230469 162.441406 L 251.695312 162.125 C 252.300781 161.675781 311.828125 116.476562 289.003906 58.09375 C 287.363281 53.886719 282.625 51.8125 278.425781 53.453125 C 274.195312 55.078125 272.152344 59.832031 273.785156 64.03125 C 292.125 110.945312 242.441406 148.636719 241.933594 149.011719 C 238.316406 151.707031 237.5625 156.824219 240.261719 160.449219 C 242.851562 163.914062 247.652344 164.746094 251.230469 162.441406 Z M 251.230469 162.441406 "
        fill-opacity="1" fill-rule="nonzero" />
    <path fill="#000604"
        d="M 319.351562 223.171875 C 320.488281 222.949219 321.597656 222.476562 322.59375 221.757812 C 326.238281 219.09375 327.039062 213.988281 324.382812 210.335938 C 288.40625 161.003906 223.800781 165.710938 221.0625 165.929688 C 216.578125 166.339844 213.238281 170.234375 213.597656 174.730469 C 213.957031 179.222656 217.894531 182.570312 222.386719 182.21875 C 222.964844 182.171875 280.671875 178.136719 311.183594 219.960938 C 313.109375 222.617188 316.335938 223.757812 319.351562 223.171875 Z M 288.425781 321.011719 C 289.4375 321.582031 290.582031 321.949219 291.804688 322.046875 C 296.308594 322.398438 300.238281 319.050781 300.597656 314.546875 C 305.433594 253.683594 253.355469 215.164062 251.132812 213.554688 C 247.464844 210.949219 242.390625 211.726562 239.738281 215.371094 C 237.082031 219.011719 237.890625 224.117188 241.527344 226.78125 C 242 227.125 288.417969 261.65625 284.308594 313.257812 C 284.054688 316.535156 285.753906 319.5 288.425781 321.011719 Z M 288.425781 321.011719 "
        fill-opacity="1" fill-rule="nonzero" />
    <path fill="#000604"
        d="M 238.839844 103.855469 C 238.324219 82.402344 220.648438 64.921875 187.78125 64.921875 C 155.621094 64.921875 137.242188 82.402344 136.726562 103.855469 C 114.589844 118.4375 100.121094 143.851562 100.121094 179.289062 C 100.121094 237.769531 139.367188 317.53125 187.78125 317.53125 C 236.199219 317.53125 275.445312 237.769531 275.445312 179.289062 C 275.4375 143.851562 260.96875 118.429688 238.839844 103.855469 Z M 238.839844 103.855469 "
        fill-opacity="1" fill-rule="nonzero" />
    <path fill="#ffffff"
        d="M 114.089844 127.03125 C 105.316406 140.835938 100.121094 158.253906 100.121094 179.289062 C 100.121094 237.769531 139.367188 317.53125 187.78125 317.53125 C 236.199219 317.53125 275.445312 237.769531 275.445312 179.289062 C 275.445312 158.226562 270.25 140.804688 261.457031 126.996094 C 241.796875 123.769531 217.289062 122.105469 187.863281 122.105469 C 158.34375 122.105469 133.777344 123.777344 114.089844 127.03125 Z M 114.089844 127.03125 "
        fill-opacity="1" fill-rule="nonzero" />
    <path fill="#000604"
        d="M 136.726562 103.855469 C 136.726562 103.855469 160.554688 97.589844 188.859375 97.589844 C 217.167969 97.589844 238.839844 103.855469 238.839844 103.855469 C 238.839844 103.855469 239.722656 64.921875 187.78125 64.921875 C 135.84375 64.921875 136.726562 103.855469 136.726562 103.855469 Z M 136.726562 103.855469 "
        fill-opacity="1" fill-rule="nonzero" />
    <path fill="#000604"
        d="M 173.175781 325.992188 C 126.15625 321.132812 89.167969 269.667969 89.167969 206.882812 C 89.167969 144.105469 125.09375 141.507812 163.292969 141.507812 C 175.007812 141.507812 180.480469 146.242188 180.480469 165.359375 L 180.480469 316.820312 C 180.472656 326.378906 175.585938 326.253906 173.175781 325.992188 Z M 200.933594 325.992188 C 247.957031 321.132812 284.945312 269.667969 284.945312 206.882812 C 284.945312 144.105469 249.015625 141.507812 210.820312 141.507812 C 199.105469 141.507812 193.632812 146.242188 193.632812 165.359375 L 193.632812 316.820312 C 193.640625 326.378906 198.523438 326.253906 200.933594 325.992188 Z M 200.933594 325.992188 "
        fill-opacity="1" fill-rule="nonzero" />
    <path fill="#ffffff"
        d="M 162.664062 313.09375 C 159.96875 313.09375 157.328125 311.761719 155.769531 309.320312 C 107.515625 233.742188 129.765625 147.320312 132.464844 137.714844 C 133.679688 133.378906 138.148438 130.8125 142.535156 132.0625 C 146.882812 133.28125 149.40625 137.796875 148.1875 142.136719 C 145.6875 151.015625 125.101562 230.9375 169.523438 300.53125 C 171.953125 304.335938 170.839844 309.386719 167.035156 311.8125 C 165.695312 312.679688 164.167969 313.09375 162.664062 313.09375 Z M 211.539062 313.09375 C 210.027344 313.09375 208.515625 312.679688 207.152344 311.8125 C 203.34375 309.386719 202.234375 304.335938 204.660156 300.53125 C 240.75 244 235.054688 174.371094 225.996094 142.136719 C 224.78125 137.789062 227.3125 133.28125 231.648438 132.0625 C 236.003906 130.871094 240.503906 133.378906 241.722656 137.714844 C 244.417969 147.320312 266.6875 233.726562 218.417969 309.320312 C 216.878906 311.761719 214.242188 313.09375 211.539062 313.09375 Z M 211.539062 313.09375 "
        fill-opacity="1" fill-rule="nonzero" />
    <path fill="#ffffff"
        d="M 122.511719 128.902344 L 253.214844 128.902344 L 253.214844 153.40625 L 122.511719 153.40625 Z M 122.511719 128.902344 "
        fill-opacity="1" fill-rule="nonzero" />
    <path fill="#000604"
        d="M 93.324219 175.351562 C 96.96875 164.070312 105.082031 152.132812 114.613281 145.320312 C 123.453125 139.015625 131.882812 139.265625 129.351562 150.777344 C 121.53125 186.453125 88.308594 190.902344 93.324219 175.351562 Z M 146.097656 151.511719 C 150.882812 137.378906 175.398438 136.230469 179.035156 152.058594 C 182.675781 167.890625 170.660156 168.984375 160.832031 168.617188 C 151.007812 168.25 142.09375 163.339844 146.097656 151.511719 Z M 280.550781 175.351562 C 276.90625 164.070312 268.792969 152.132812 259.261719 145.320312 C 250.421875 139.015625 241.992188 139.265625 244.523438 150.777344 C 252.34375 186.453125 285.566406 190.902344 280.550781 175.351562 Z M 227.769531 151.511719 C 222.984375 137.378906 198.46875 136.230469 194.832031 152.058594 C 191.1875 167.890625 203.207031 168.984375 213.03125 168.617188 C 222.859375 168.25 231.773438 163.339844 227.769531 151.511719 Z M 227.769531 151.511719 "
        fill-opacity="1" fill-rule="nonzero" />
</svg>