<svg xmlns="http://www.w3.org/2000/svg" xmlns:xlink="http://www.w3.org/1999/xlink" width="500" zoomAndPan="magnify" viewBox="0 0 375 374.999991" height="500" preserveAspectRatio="xMidYMid meet" version="1.0"><metadata><ContainsAiGeneratedContent>Yes</ContainsAiGeneratedContent></metadata><defs><clipPath id="43589ae5f1"><path d="M 56.484375 0 L 318.234375 0 L 318.234375 375 L 56.484375 375 Z M 56.484375 0 " clip-rule="nonzero"/></clipPath></defs><g clip-path="url(#43589ae5f1)"><path fill="#ffffff" d="M 140.785156 69.792969 L 145.8125 82.335938 C 143.871094 85.253906 142.390625 88.390625 141.378906 91.75 C 140.363281 95.105469 139.855469 98.535156 139.859375 102.042969 L 139.859375 131.816406 C 139.859375 133.683594 139.984375 135.542969 140.238281 137.390625 C 140.488281 139.238281 140.859375 141.0625 141.355469 142.863281 C 141.851562 144.660156 142.464844 146.421875 143.195312 148.136719 C 143.929688 149.851562 144.769531 151.511719 145.726562 153.117188 C 146.679688 154.722656 147.734375 156.253906 148.894531 157.714844 C 150.054688 159.175781 151.308594 160.554688 152.652344 161.851562 C 153.996094 163.144531 155.421875 164.34375 156.925781 165.445312 C 158.429688 166.546875 160.003906 167.546875 161.640625 168.4375 C 160.589844 169.722656 159.738281 171.132812 159.085938 172.660156 L 132.460938 168.222656 L 115.726562 118.027344 C 115.53125 117.433594 115.246094 116.886719 114.875 116.382812 C 114.507812 115.878906 114.066406 115.445312 113.5625 115.078125 C 113.054688 114.714844 112.503906 114.433594 111.910156 114.242188 C 111.316406 114.050781 110.707031 113.953125 110.082031 113.953125 L 92.214844 113.953125 L 92.214844 125.863281 L 105.789062 125.863281 L 122.300781 175.386719 C 122.472656 175.898438 122.710938 176.382812 123.011719 176.828125 C 123.3125 177.277344 123.671875 177.679688 124.082031 178.03125 C 124.492188 178.382812 124.945312 178.671875 125.433594 178.902344 C 125.925781 179.128906 126.4375 179.289062 126.972656 179.378906 L 158.582031 184.648438 C 159.347656 187.167969 160.609375 189.410156 162.367188 191.371094 C 160.652344 193.285156 159.410156 195.46875 158.640625 197.921875 L 115.296875 203.339844 C 113.945312 203.507812 112.789062 204.074219 111.828125 205.039062 L 83.796875 233.058594 L 68.394531 233.058594 L 68.394531 244.96875 L 86.261719 244.96875 C 87.050781 244.96875 87.808594 244.816406 88.539062 244.515625 C 89.269531 244.210938 89.914062 243.78125 90.472656 243.222656 L 118.804688 214.894531 L 159.015625 209.867188 C 159.238281 210.410156 159.515625 210.917969 159.785156 211.429688 C 157.960938 212.265625 156.269531 213.316406 154.710938 214.582031 C 153.152344 215.847656 151.777344 217.289062 150.582031 218.902344 C 149.390625 220.515625 148.417969 222.253906 147.664062 224.113281 C 146.910156 225.976562 146.402344 227.898438 146.136719 229.890625 L 94.515625 270.039062 C 93.71875 270.660156 93.121094 271.429688 92.71875 272.351562 C 92.316406 273.273438 92.15625 274.234375 92.238281 275.238281 L 97.960938 343.949219 L 76.09375 365.816406 L 84.515625 374.238281 L 108.335938 350.417969 C 108.957031 349.796875 109.414062 349.078125 109.714844 348.253906 C 110.015625 347.433594 110.128906 346.585938 110.058594 345.714844 L 104.375 277.464844 L 148.242188 243.347656 C 149.15625 245.21875 150.296875 246.945312 151.660156 248.515625 C 149.484375 249.40625 147.382812 250.453125 145.359375 251.652344 C 143.332031 252.851562 141.410156 254.195312 139.582031 255.679688 C 137.757812 257.164062 136.050781 258.777344 134.464844 260.511719 C 132.878906 262.25 131.429688 264.097656 130.117188 266.046875 C 128.800781 268 127.640625 270.039062 126.628906 272.164062 C 125.617188 274.289062 124.765625 276.472656 124.078125 278.726562 C 123.390625 280.976562 122.871094 283.261719 122.519531 285.589844 C 122.171875 287.917969 121.996094 290.257812 121.992188 292.609375 L 121.992188 304.519531 C 121.992188 305.59375 122.019531 306.664062 122.070312 307.734375 C 122.125 308.804688 122.203125 309.875 122.308594 310.941406 C 122.414062 312.007812 122.542969 313.070312 122.703125 314.132812 C 122.859375 315.191406 123.042969 316.25 123.25 317.300781 C 123.460938 318.351562 123.695312 319.398438 123.957031 320.4375 C 124.214844 321.476562 124.5 322.511719 124.8125 323.535156 C 125.125 324.5625 125.460938 325.582031 125.820312 326.589844 C 126.183594 327.597656 126.570312 328.597656 126.980469 329.589844 C 127.390625 330.578125 127.824219 331.558594 128.28125 332.527344 C 128.738281 333.5 129.222656 334.457031 129.726562 335.402344 C 130.234375 336.347656 130.761719 337.277344 131.3125 338.199219 C 131.863281 339.117188 132.4375 340.023438 133.03125 340.914062 C 133.628906 341.804688 134.246094 342.683594 134.882812 343.542969 C 135.523438 344.40625 136.183594 345.25 136.863281 346.078125 C 137.542969 346.90625 138.242188 347.71875 138.960938 348.511719 C 139.683594 349.308594 140.421875 350.082031 141.179688 350.839844 C 141.9375 351.601562 142.714844 352.339844 143.507812 353.058594 C 144.300781 353.777344 145.113281 354.480469 145.941406 355.160156 C 146.769531 355.839844 147.617188 356.5 148.476562 357.136719 C 149.339844 357.777344 150.214844 358.394531 151.105469 358.988281 C 151.996094 359.585938 152.902344 360.15625 153.820312 360.707031 C 154.742188 361.261719 155.675781 361.789062 156.621094 362.292969 C 157.566406 362.800781 158.523438 363.28125 159.492188 363.738281 C 160.460938 364.199219 161.441406 364.632812 162.429688 365.042969 C 163.421875 365.453125 164.421875 365.839844 165.429688 366.199219 C 166.441406 366.558594 167.457031 366.898438 168.484375 367.207031 C 169.511719 367.519531 170.542969 367.804688 171.582031 368.066406 C 172.621094 368.324219 173.667969 368.5625 174.71875 368.769531 C 175.773438 368.980469 176.828125 369.164062 177.886719 369.320312 C 178.949219 369.476562 180.011719 369.609375 181.078125 369.714844 C 182.144531 369.816406 183.214844 369.898438 184.285156 369.949219 C 185.355469 370.003906 186.429688 370.027344 187.5 370.027344 C 188.570312 370.027344 189.644531 370.003906 190.714844 369.949219 C 191.785156 369.898438 192.855469 369.816406 193.921875 369.714844 C 194.988281 369.609375 196.050781 369.476562 197.113281 369.320312 C 198.171875 369.164062 199.226562 368.980469 200.28125 368.769531 C 201.332031 368.5625 202.378906 368.324219 203.417969 368.066406 C 204.457031 367.804688 205.488281 367.519531 206.515625 367.207031 C 207.542969 366.898438 208.558594 366.558594 209.570312 366.199219 C 210.578125 365.839844 211.578125 365.453125 212.570312 365.042969 C 213.558594 364.632812 214.539062 364.199219 215.507812 363.738281 C 216.476562 363.28125 217.433594 362.800781 218.378906 362.292969 C 219.324219 361.789062 220.257812 361.261719 221.179688 360.707031 C 222.097656 360.15625 223.003906 359.585938 223.894531 358.988281 C 224.785156 358.394531 225.660156 357.777344 226.523438 357.136719 C 227.382812 356.5 228.230469 355.839844 229.058594 355.160156 C 229.886719 354.480469 230.699219 353.777344 231.492188 353.058594 C 232.285156 352.339844 233.0625 351.601562 233.820312 350.839844 C 234.578125 350.082031 235.316406 349.308594 236.039062 348.511719 C 236.757812 347.71875 237.457031 346.90625 238.136719 346.078125 C 238.816406 345.25 239.476562 344.40625 240.117188 343.542969 C 240.753906 342.683594 241.371094 341.804688 241.96875 340.914062 C 242.5625 340.023438 243.136719 339.117188 243.6875 338.199219 C 244.238281 337.277344 244.765625 336.347656 245.273438 335.402344 C 245.777344 334.457031 246.261719 333.5 246.71875 332.527344 C 247.175781 331.558594 247.609375 330.578125 248.019531 329.589844 C 248.429688 328.597656 248.816406 327.597656 249.179688 326.589844 C 249.539062 325.582031 249.875 324.5625 250.1875 323.535156 C 250.5 322.511719 250.785156 321.476562 251.042969 320.4375 C 251.304688 319.398438 251.539062 318.351562 251.75 317.300781 C 251.957031 316.25 252.140625 315.191406 252.296875 314.132812 C 252.457031 313.070312 252.585938 312.007812 252.691406 310.941406 C 252.796875 309.875 252.875 308.804688 252.929688 307.734375 C 252.980469 306.664062 253.007812 305.59375 253.007812 304.519531 L 253.007812 292.609375 C 253.003906 290.257812 252.828125 287.917969 252.476562 285.59375 C 252.125 283.269531 251.605469 280.980469 250.917969 278.730469 C 250.230469 276.480469 249.378906 274.296875 248.367188 272.171875 C 247.355469 270.050781 246.191406 268.011719 244.878906 266.0625 C 243.5625 264.109375 242.113281 262.265625 240.527344 260.53125 C 238.941406 258.792969 237.234375 257.183594 235.410156 255.699219 C 233.585938 254.214844 231.664062 252.875 229.640625 251.671875 C 227.617188 250.472656 225.515625 249.429688 223.339844 248.542969 C 224.703125 246.96875 225.84375 245.246094 226.757812 243.371094 L 270.625 277.488281 L 264.917969 345.714844 C 264.84375 346.585938 264.960938 347.433594 265.261719 348.253906 C 265.5625 349.078125 266.019531 349.796875 266.640625 350.417969 L 290.460938 374.238281 L 298.882812 365.816406 L 277.011719 343.949219 L 282.785156 275.238281 C 282.867188 274.234375 282.710938 273.273438 282.304688 272.351562 C 281.902344 271.429688 281.304688 270.660156 280.507812 270.039062 L 228.890625 229.894531 C 228.625 227.90625 228.113281 225.980469 227.359375 224.121094 C 226.605469 222.257812 225.632812 220.523438 224.441406 218.910156 C 223.246094 217.292969 221.871094 215.855469 220.3125 214.589844 C 218.753906 213.324219 217.0625 212.273438 215.238281 211.433594 C 215.507812 210.921875 215.789062 210.414062 216.007812 209.875 L 256.21875 214.898438 L 284.554688 243.230469 C 285.109375 243.785156 285.75 244.210938 286.472656 244.511719 C 287.199219 244.8125 287.953125 244.964844 288.738281 244.96875 L 306.605469 244.96875 L 306.605469 233.058594 L 291.203125 233.058594 L 263.171875 205.027344 C 262.210938 204.0625 261.054688 203.496094 259.703125 203.328125 L 216.359375 197.910156 C 215.589844 195.460938 214.347656 193.28125 212.632812 191.371094 C 214.390625 189.410156 215.652344 187.167969 216.417969 184.648438 L 248.027344 179.378906 C 248.5625 179.289062 249.074219 179.128906 249.566406 178.902344 C 250.054688 178.671875 250.507812 178.382812 250.917969 178.03125 C 251.328125 177.679688 251.6875 177.277344 251.988281 176.828125 C 252.289062 176.382812 252.527344 175.898438 252.699219 175.386719 L 269.210938 125.863281 L 282.785156 125.863281 L 282.785156 113.953125 L 264.917969 113.953125 C 264.292969 113.953125 263.683594 114.050781 263.089844 114.242188 C 262.496094 114.433594 261.945312 114.714844 261.4375 115.078125 C 260.933594 115.445312 260.492188 115.878906 260.125 116.382812 C 259.753906 116.886719 259.46875 117.433594 259.273438 118.027344 L 242.539062 168.222656 L 215.917969 172.660156 C 215.261719 171.132812 214.410156 169.726562 213.359375 168.4375 C 214.996094 167.546875 216.570312 166.546875 218.074219 165.445312 C 219.578125 164.34375 221.003906 163.144531 222.347656 161.851562 C 223.691406 160.554688 224.945312 159.175781 226.105469 157.714844 C 227.265625 156.253906 228.320312 154.722656 229.273438 153.117188 C 230.230469 151.511719 231.070312 149.851562 231.804688 148.136719 C 232.535156 146.421875 233.148438 144.664062 233.644531 142.863281 C 234.140625 141.0625 234.511719 139.238281 234.761719 137.390625 C 235.015625 135.542969 235.140625 133.683594 235.140625 131.816406 L 235.140625 102.042969 C 235.144531 98.535156 234.636719 95.105469 233.621094 91.75 C 232.609375 88.390625 231.128906 85.253906 229.1875 82.335938 L 234.207031 69.789062 C 235.039062 67.691406 235.945312 65.628906 236.929688 63.601562 C 237.914062 61.574219 238.972656 59.585938 240.105469 57.636719 C 241.238281 55.691406 242.445312 53.785156 243.71875 51.925781 C 244.996094 50.070312 246.339844 48.261719 247.75 46.503906 C 249.160156 44.746094 250.636719 43.042969 252.175781 41.394531 C 253.714844 39.746094 255.3125 38.160156 256.96875 36.632812 C 258.628906 35.105469 260.339844 33.640625 262.105469 32.242188 C 263.875 30.839844 265.691406 29.507812 267.558594 28.246094 C 269.421875 26.980469 271.335938 25.789062 273.289062 24.667969 C 275.246094 23.546875 277.242188 22.503906 279.277344 21.53125 C 281.308594 20.558594 283.378906 19.664062 285.480469 18.847656 C 287.582031 18.03125 289.710938 17.296875 291.867188 16.636719 C 294.023438 15.980469 296.199219 15.40625 298.398438 14.910156 C 300.597656 14.417969 302.8125 14.003906 305.042969 13.675781 C 307.273438 13.347656 309.511719 13.105469 311.761719 12.941406 C 314.011719 12.78125 316.261719 12.707031 318.515625 12.714844 L 318.515625 0.800781 C 315.964844 0.792969 313.417969 0.882812 310.875 1.0625 C 308.332031 1.246094 305.800781 1.523438 303.277344 1.894531 C 300.753906 2.265625 298.25 2.730469 295.761719 3.292969 C 293.273438 3.851562 290.808594 4.503906 288.371094 5.246094 C 285.929688 5.988281 283.523438 6.824219 281.144531 7.746094 C 278.769531 8.671875 276.429688 9.683594 274.128906 10.78125 C 271.828125 11.878906 269.570312 13.0625 267.359375 14.332031 C 265.148438 15.597656 262.984375 16.949219 260.875 18.378906 C 258.761719 19.808594 256.707031 21.3125 254.707031 22.898438 C 252.710938 24.480469 250.773438 26.136719 248.898438 27.863281 C 247.023438 29.59375 245.214844 31.390625 243.476562 33.253906 C 241.734375 35.117188 240.066406 37.042969 238.46875 39.03125 C 236.871094 41.019531 235.351562 43.0625 233.910156 45.167969 C 232.464844 47.269531 231.105469 49.421875 229.820312 51.625 C 228.539062 53.832031 227.339844 56.078125 226.226562 58.371094 C 225.113281 60.667969 224.085938 63 223.148438 65.371094 L 220.109375 72.96875 C 218.292969 71.675781 216.371094 70.558594 214.347656 69.628906 L 223.113281 25.816406 C 223.199219 25.382812 223.242188 24.945312 223.230469 24.503906 C 223.222656 24.0625 223.164062 23.625 223.058594 23.199219 C 222.953125 22.769531 222.800781 22.359375 222.605469 21.960938 C 222.40625 21.566406 222.167969 21.199219 221.890625 20.855469 C 221.609375 20.515625 221.296875 20.207031 220.949219 19.933594 C 220.601562 19.664062 220.230469 19.433594 219.828125 19.242188 C 219.429688 19.054688 219.015625 18.910156 218.585938 18.8125 C 218.152344 18.71875 217.71875 18.667969 217.277344 18.667969 L 199.410156 18.667969 L 199.410156 30.578125 L 210.011719 30.578125 L 202.863281 66.484375 C 201.703125 66.375 200.566406 66.308594 199.410156 66.308594 L 175.589844 66.308594 C 174.433594 66.308594 173.296875 66.375 172.164062 66.484375 L 164.988281 30.578125 L 175.589844 30.578125 L 175.589844 18.667969 L 157.722656 18.667969 C 157.28125 18.667969 156.847656 18.71875 156.414062 18.8125 C 155.984375 18.910156 155.570312 19.054688 155.171875 19.242188 C 154.769531 19.433594 154.398438 19.664062 154.050781 19.933594 C 153.703125 20.207031 153.390625 20.515625 153.109375 20.855469 C 152.832031 21.199219 152.59375 21.566406 152.394531 21.960938 C 152.199219 22.359375 152.046875 22.769531 151.941406 23.199219 C 151.835938 23.625 151.777344 24.0625 151.769531 24.503906 C 151.757812 24.945312 151.800781 25.382812 151.886719 25.816406 L 160.652344 69.652344 C 158.628906 70.585938 156.707031 71.699219 154.890625 72.992188 L 151.851562 65.394531 C 150.914062 63.023438 149.886719 60.6875 148.773438 58.394531 C 147.660156 56.101562 146.460938 53.851562 145.179688 51.644531 C 143.898438 49.441406 142.535156 47.289062 141.09375 45.183594 C 139.652344 43.082031 138.128906 41.035156 136.535156 39.046875 C 134.9375 37.058594 133.269531 35.132812 131.53125 33.265625 C 129.789062 31.402344 127.980469 29.605469 126.105469 27.878906 C 124.234375 26.148438 122.296875 24.492188 120.296875 22.910156 C 118.296875 21.324219 116.242188 19.816406 114.132812 18.386719 C 112.019531 16.957031 109.859375 15.609375 107.644531 14.339844 C 105.433594 13.070312 103.175781 11.886719 100.875 10.789062 C 98.574219 9.6875 96.234375 8.675781 93.859375 7.753906 C 91.480469 6.828125 89.074219 5.992188 86.632812 5.25 C 84.195312 4.503906 81.730469 3.855469 79.242188 3.292969 C 76.753906 2.734375 74.25 2.269531 71.726562 1.898438 C 69.203125 1.523438 66.667969 1.246094 64.125 1.0625 C 61.582031 0.882812 59.035156 0.792969 56.484375 0.800781 L 56.484375 12.714844 C 58.738281 12.707031 60.988281 12.78125 63.238281 12.945312 C 65.488281 13.105469 67.726562 13.347656 69.957031 13.679688 C 72.1875 14.007812 74.402344 14.417969 76.601562 14.914062 C 78.800781 15.40625 80.976562 15.984375 83.132812 16.640625 C 85.289062 17.296875 87.417969 18.035156 89.519531 18.851562 C 91.621094 19.667969 93.6875 20.5625 95.722656 21.535156 C 97.757812 22.503906 99.75 23.550781 101.707031 24.671875 C 103.664062 25.792969 105.574219 26.984375 107.441406 28.25 C 109.308594 29.511719 111.125 30.84375 112.890625 32.246094 C 114.65625 33.644531 116.371094 35.109375 118.027344 36.636719 C 119.683594 38.164062 121.28125 39.753906 122.820312 41.398438 C 124.359375 43.046875 125.835938 44.75 127.246094 46.507812 C 128.65625 48.265625 130 50.074219 131.273438 51.933594 C 132.550781 53.792969 133.753906 55.695312 134.890625 57.644531 C 136.023438 59.59375 137.082031 61.582031 138.066406 63.609375 C 139.050781 65.636719 139.957031 67.699219 140.785156 69.792969 Z M 205.367188 203.28125 C 205.367188 203.671875 205.328125 204.058594 205.25 204.441406 C 205.175781 204.828125 205.0625 205.199219 204.914062 205.558594 C 204.761719 205.921875 204.578125 206.265625 204.363281 206.589844 C 204.144531 206.914062 203.898438 207.214844 203.621094 207.492188 C 203.34375 207.769531 203.042969 208.015625 202.71875 208.234375 C 202.394531 208.449219 202.050781 208.632812 201.691406 208.785156 C 201.328125 208.933594 200.957031 209.046875 200.574219 209.121094 C 200.1875 209.199219 199.800781 209.238281 199.410156 209.238281 L 175.589844 209.238281 C 175.199219 209.238281 174.8125 209.199219 174.425781 209.121094 C 174.042969 209.046875 173.671875 208.933594 173.308594 208.785156 C 172.949219 208.632812 172.605469 208.449219 172.28125 208.234375 C 171.957031 208.015625 171.65625 207.769531 171.378906 207.492188 C 171.101562 207.214844 170.855469 206.914062 170.636719 206.589844 C 170.421875 206.265625 170.238281 205.921875 170.085938 205.558594 C 169.9375 205.199219 169.824219 204.828125 169.75 204.441406 C 169.671875 204.058594 169.632812 203.671875 169.632812 203.28125 C 169.632812 202.890625 169.671875 202.503906 169.75 202.121094 C 169.824219 201.734375 169.9375 201.363281 170.085938 201.003906 C 170.238281 200.640625 170.421875 200.296875 170.636719 199.972656 C 170.855469 199.648438 171.101562 199.347656 171.378906 199.070312 C 171.65625 198.792969 171.957031 198.546875 172.28125 198.328125 C 172.605469 198.113281 172.949219 197.929688 173.308594 197.78125 C 173.671875 197.628906 174.042969 197.515625 174.425781 197.441406 C 174.8125 197.363281 175.199219 197.324219 175.589844 197.324219 L 199.410156 197.324219 C 199.800781 197.324219 200.1875 197.363281 200.574219 197.441406 C 200.957031 197.515625 201.328125 197.628906 201.691406 197.78125 C 202.050781 197.929688 202.394531 198.113281 202.71875 198.328125 C 203.042969 198.546875 203.34375 198.792969 203.621094 199.070312 C 203.898438 199.347656 204.144531 199.648438 204.363281 199.972656 C 204.578125 200.296875 204.761719 200.640625 204.914062 201.003906 C 205.0625 201.363281 205.175781 201.734375 205.25 202.121094 C 205.328125 202.503906 205.367188 202.890625 205.367188 203.28125 Z M 241.097656 292.609375 L 241.097656 298.566406 L 133.902344 298.566406 L 133.902344 292.609375 C 133.914062 288.519531 134.609375 284.550781 135.988281 280.699219 L 239.011719 280.699219 C 240.390625 284.550781 241.085938 288.519531 241.097656 292.609375 Z M 134.253906 310.476562 L 240.746094 310.476562 C 240.039062 316.746094 238.269531 322.703125 235.441406 328.339844 L 139.558594 328.339844 C 136.730469 322.703125 134.960938 316.746094 134.253906 310.476562 Z M 187.5 358.117188 C 183.738281 358.117188 180.019531 357.71875 176.339844 356.933594 C 172.664062 356.144531 169.109375 354.980469 165.675781 353.441406 C 162.246094 351.902344 159.011719 350.019531 155.976562 347.796875 C 152.941406 345.574219 150.175781 343.058594 147.671875 340.253906 L 227.335938 340.253906 C 224.832031 343.058594 222.0625 345.574219 219.027344 347.796875 C 215.992188 350.019531 212.757812 351.902344 209.328125 353.441406 C 205.894531 354.980469 202.339844 356.144531 198.660156 356.933594 C 194.980469 357.722656 191.261719 358.117188 187.5 358.117188 Z M 231.925781 268.789062 L 143.074219 268.789062 C 144.742188 266.917969 146.589844 265.242188 148.613281 263.757812 C 150.636719 262.277344 152.792969 261.023438 155.082031 259.996094 C 157.371094 258.972656 159.742188 258.195312 162.195312 257.671875 C 164.644531 257.144531 167.125 256.878906 169.632812 256.878906 L 205.367188 256.878906 C 207.875 256.878906 210.355469 257.144531 212.804688 257.671875 C 215.257812 258.195312 217.628906 258.972656 219.917969 259.996094 C 222.207031 261.023438 224.363281 262.277344 226.386719 263.757812 C 228.410156 265.242188 230.257812 266.917969 231.925781 268.789062 Z M 205.367188 244.96875 L 169.632812 244.96875 C 168.851562 244.96875 168.078125 244.890625 167.3125 244.738281 C 166.542969 244.585938 165.796875 244.359375 165.078125 244.0625 C 164.355469 243.761719 163.667969 243.394531 163.015625 242.960938 C 162.367188 242.527344 161.765625 242.03125 161.210938 241.480469 C 160.660156 240.925781 160.164062 240.324219 159.730469 239.675781 C 159.296875 239.023438 158.929688 238.339844 158.628906 237.617188 C 158.332031 236.894531 158.105469 236.148438 157.953125 235.382812 C 157.800781 234.613281 157.722656 233.839844 157.722656 233.058594 C 157.722656 232.277344 157.800781 231.5 157.953125 230.734375 C 158.105469 229.96875 158.332031 229.222656 158.628906 228.5 C 158.929688 227.777344 159.296875 227.089844 159.730469 226.441406 C 160.164062 225.789062 160.660156 225.1875 161.210938 224.636719 C 161.765625 224.082031 162.367188 223.589844 163.015625 223.15625 C 163.667969 222.71875 164.355469 222.351562 165.078125 222.054688 C 165.796875 221.753906 166.542969 221.527344 167.3125 221.375 C 168.078125 221.222656 168.851562 221.148438 169.632812 221.148438 L 205.367188 221.148438 C 206.148438 221.148438 206.921875 221.222656 207.6875 221.375 C 208.457031 221.527344 209.203125 221.753906 209.921875 222.054688 C 210.644531 222.351562 211.332031 222.71875 211.984375 223.15625 C 212.632812 223.589844 213.234375 224.082031 213.789062 224.636719 C 214.339844 225.1875 214.835938 225.789062 215.269531 226.441406 C 215.703125 227.089844 216.070312 227.777344 216.371094 228.5 C 216.667969 229.222656 216.894531 229.96875 217.046875 230.734375 C 217.199219 231.5 217.277344 232.277344 217.277344 233.058594 C 217.277344 233.839844 217.199219 234.613281 217.046875 235.382812 C 216.894531 236.148438 216.667969 236.894531 216.371094 237.617188 C 216.070312 238.339844 215.703125 239.023438 215.269531 239.675781 C 214.835938 240.324219 214.339844 240.925781 213.789062 241.480469 C 213.234375 242.03125 212.632812 242.527344 211.984375 242.960938 C 211.332031 243.394531 210.644531 243.761719 209.921875 244.0625 C 209.203125 244.359375 208.457031 244.585938 207.6875 244.738281 C 206.921875 244.890625 206.148438 244.96875 205.367188 244.96875 Z M 199.410156 173.503906 C 199.800781 173.503906 200.1875 173.542969 200.574219 173.621094 C 200.957031 173.695312 201.328125 173.808594 201.691406 173.957031 C 202.050781 174.109375 202.394531 174.292969 202.71875 174.507812 C 203.042969 174.726562 203.34375 174.972656 203.621094 175.25 C 203.898438 175.527344 204.144531 175.828125 204.363281 176.152344 C 204.578125 176.476562 204.761719 176.820312 204.914062 177.179688 C 205.0625 177.542969 205.175781 177.914062 205.25 178.296875 C 205.328125 178.683594 205.367188 179.070312 205.367188 179.460938 C 205.367188 179.851562 205.328125 180.238281 205.25 180.621094 C 205.175781 181.003906 205.0625 181.378906 204.914062 181.738281 C 204.761719 182.101562 204.578125 182.445312 204.363281 182.769531 C 204.144531 183.09375 203.898438 183.394531 203.621094 183.671875 C 203.34375 183.949219 203.042969 184.195312 202.71875 184.410156 C 202.394531 184.628906 202.050781 184.8125 201.691406 184.960938 C 201.328125 185.113281 200.957031 185.226562 200.574219 185.300781 C 200.1875 185.378906 199.800781 185.414062 199.410156 185.414062 L 175.589844 185.414062 C 175.199219 185.414062 174.8125 185.378906 174.425781 185.300781 C 174.042969 185.226562 173.671875 185.113281 173.308594 184.960938 C 172.949219 184.8125 172.605469 184.628906 172.28125 184.410156 C 171.957031 184.195312 171.65625 183.949219 171.378906 183.671875 C 171.101562 183.394531 170.855469 183.09375 170.636719 182.769531 C 170.421875 182.445312 170.238281 182.101562 170.085938 181.738281 C 169.9375 181.378906 169.824219 181.003906 169.75 180.621094 C 169.671875 180.238281 169.632812 179.851562 169.632812 179.460938 C 169.632812 179.070312 169.671875 178.683594 169.75 178.296875 C 169.824219 177.914062 169.9375 177.542969 170.085938 177.179688 C 170.238281 176.820312 170.421875 176.476562 170.636719 176.152344 C 170.855469 175.828125 171.101562 175.527344 171.378906 175.25 C 171.65625 174.972656 171.957031 174.726562 172.28125 174.507812 C 172.605469 174.292969 172.949219 174.109375 173.308594 173.957031 C 173.671875 173.808594 174.042969 173.695312 174.425781 173.621094 C 174.8125 173.542969 175.199219 173.503906 175.589844 173.503906 Z M 175.589844 78.222656 L 199.410156 78.222656 C 199.773438 78.222656 200.105469 78.308594 200.464844 78.328125 L 199.867188 81.242188 L 187.5 93.617188 L 175.117188 81.242188 L 174.523438 78.328125 C 174.894531 78.308594 175.226562 78.222656 175.589844 78.222656 Z M 163.082031 81.847656 L 163.785156 85.34375 C 164.019531 86.523438 164.5625 87.535156 165.410156 88.386719 L 183.277344 106.253906 C 183.554688 106.527344 183.855469 106.777344 184.179688 106.992188 C 184.503906 107.210938 184.847656 107.394531 185.210938 107.542969 C 185.570312 107.691406 185.941406 107.804688 186.328125 107.882812 C 186.710938 107.957031 187.097656 107.996094 187.488281 107.996094 C 187.878906 107.996094 188.265625 107.957031 188.648438 107.882812 C 189.03125 107.804688 189.40625 107.691406 189.765625 107.542969 C 190.128906 107.394531 190.472656 107.210938 190.796875 106.992188 C 191.121094 106.777344 191.421875 106.527344 191.699219 106.253906 L 209.5625 88.386719 C 210.414062 87.535156 210.957031 86.523438 211.191406 85.34375 L 211.894531 81.847656 C 213.621094 82.90625 215.1875 84.167969 216.589844 85.628906 C 217.996094 87.089844 219.195312 88.703125 220.1875 90.472656 C 221.179688 92.238281 221.933594 94.101562 222.449219 96.0625 C 222.964844 98.023438 223.226562 100.015625 223.230469 102.042969 L 223.230469 131.816406 C 223.230469 132.792969 223.179688 133.765625 223.085938 134.734375 C 222.988281 135.707031 222.84375 136.667969 222.652344 137.625 C 222.460938 138.582031 222.226562 139.523438 221.941406 140.457031 C 221.65625 141.390625 221.328125 142.308594 220.957031 143.207031 C 220.582031 144.109375 220.164062 144.988281 219.703125 145.847656 C 219.246094 146.707031 218.746094 147.542969 218.203125 148.351562 C 217.660156 149.164062 217.082031 149.945312 216.460938 150.699219 C 215.84375 151.453125 215.1875 152.171875 214.5 152.863281 C 213.808594 153.550781 213.089844 154.207031 212.335938 154.824219 C 211.582031 155.445312 210.800781 156.023438 209.988281 156.566406 C 209.179688 157.105469 208.34375 157.609375 207.484375 158.066406 C 206.625 158.527344 205.746094 158.945312 204.84375 159.320312 C 203.945312 159.691406 203.027344 160.019531 202.09375 160.304688 C 201.164062 160.589844 200.21875 160.824219 199.261719 161.015625 C 198.304688 161.207031 197.34375 161.351562 196.371094 161.449219 C 195.402344 161.542969 194.429688 161.59375 193.457031 161.59375 L 193.457031 125.863281 L 181.542969 125.863281 L 181.542969 161.59375 C 180.570312 161.59375 179.597656 161.542969 178.628906 161.449219 C 177.65625 161.351562 176.695312 161.207031 175.738281 161.015625 C 174.78125 160.824219 173.835938 160.589844 172.90625 160.304688 C 171.972656 160.019531 171.054688 159.691406 170.15625 159.320312 C 169.253906 158.945312 168.375 158.527344 167.515625 158.066406 C 166.65625 157.609375 165.820312 157.105469 165.011719 156.566406 C 164.199219 156.023438 163.417969 155.445312 162.664062 154.824219 C 161.910156 154.207031 161.191406 153.550781 160.5 152.863281 C 159.8125 152.171875 159.15625 151.453125 158.539062 150.699219 C 157.917969 149.945312 157.339844 149.164062 156.796875 148.351562 C 156.253906 147.542969 155.753906 146.707031 155.292969 145.847656 C 154.835938 144.988281 154.417969 144.109375 154.042969 143.207031 C 153.671875 142.308594 153.34375 141.390625 153.058594 140.457031 C 152.773438 139.523438 152.539062 138.582031 152.347656 137.625 C 152.15625 136.667969 152.011719 135.707031 151.914062 134.734375 C 151.820312 133.765625 151.769531 132.792969 151.769531 131.816406 L 151.769531 102.042969 C 151.773438 100.015625 152.03125 98.023438 152.546875 96.066406 C 153.058594 94.105469 153.8125 92.242188 154.800781 90.476562 C 155.792969 88.707031 156.988281 87.09375 158.390625 85.632812 C 159.792969 84.171875 161.359375 82.910156 163.082031 81.847656 Z M 163.082031 81.847656 " fill-opacity="1" fill-rule="nonzero"/></g></svg>